<svg xmlns="http://www.w3.org/2000/svg" xmlns:xlink="http://www.w3.org/1999/xlink" viewBox="0 0 79.573 71.766"><defs><style>.cls-1{isolation:isolate;}.cls-2,.cls-6{mix-blend-mode:multiply;}.cls-3{fill:url(#linear-gradient);}.cls-4{fill:url(#linear-gradient-2);}.cls-5{fill:url(#linear-gradient-3);}.cls-6,.cls-7{fill:#aa4f19;}.cls-6{opacity:0.3;}.cls-7{opacity:0.2;}.cls-8{fill:url(#linear-gradient-4);}.cls-9{fill:url(#linear-gradient-5);}.cls-10{fill:url(#linear-gradient-6);}.cls-11{fill:url(#linear-gradient-7);}.cls-12{fill:#ffd044;opacity:0.4;}.cls-13{fill:url(#linear-gradient-8);}.cls-14{fill:url(#linear-gradient-9);}.cls-15{fill:#ffe7b8;}</style><linearGradient id="linear-gradient" x1="-21.004" y1="20.851" x2="2.727" y2="33.552" gradientTransform="translate(39.873 9.008) rotate(-3.507)" gradientUnits="userSpaceOnUse"><stop offset="0" stop-color="#ffce6e"/><stop offset="1" stop-color="#fbb454"/></linearGradient><linearGradient id="linear-gradient-2" x1="-28.13" y1="34.165" x2="-4.399" y2="46.866" xlink:href="#linear-gradient"/><linearGradient id="linear-gradient-3" x1="-29.015" y1="39.338" x2="30.69" y2="-5.008" gradientTransform="translate(39.873 9.008) rotate(-3.507)" gradientUnits="userSpaceOnUse"><stop offset="0" stop-color="#ffa324"/><stop offset="1" stop-color="#cc6b28"/></linearGradient><linearGradient id="linear-gradient-4" x1="-26.734" y1="31.557" x2="-3.003" y2="44.258" xlink:href="#linear-gradient"/><linearGradient id="linear-gradient-5" x1="-22.314" y1="28.171" x2="26.832" y2="-6.577" xlink:href="#linear-gradient-3"/><linearGradient id="linear-gradient-6" x1="-20.285" y1="19.509" x2="3.445" y2="32.209" xlink:href="#linear-gradient"/><linearGradient id="linear-gradient-7" x1="-25.38" y1="18.747" x2="24.918" y2="13.371" xlink:href="#linear-gradient-3"/><linearGradient id="linear-gradient-8" x1="-11.994" y1="6.279" x2="11.736" y2="18.98" xlink:href="#linear-gradient"/><linearGradient id="linear-gradient-9" x1="-20.204" y1="-9.148" x2="3.608" y2="37.375" gradientTransform="translate(39.873 9.008) rotate(-3.507)" gradientUnits="userSpaceOnUse"><stop offset="0" stop-color="#ffa324"/><stop offset="0.272" stop-color="#f69925"/><stop offset="0.738" stop-color="#dd7d27"/><stop offset="1" stop-color="#cc6b28"/></linearGradient></defs><title>croissant</title><g class="cls-1"><g id="Layer_2" data-name="Layer 2"><g id="done" class="cls-2"><path class="cls-3" d="M3.243,23.228A42.3,42.3,0,0,0,15.184,40a42.474,42.474,0,0,0,21.39,9.6c3.248-7.839,2.436-16.626-2.414-22.7C27.5,18.557,14.053,16.4,3.243,23.228Z"/><path class="cls-4" d="M0,42.255A29.015,29.015,0,0,0,29.441,55.349a17.472,17.472,0,0,0-11.36-17.486A17.372,17.372,0,0,0,0,42.255Z"/><path class="cls-5" d="M14.448,71.739c-8.123-.876-21.992-42.264,6.221-60.991,26.353-17.492,60.712,6.423,58.83,15.8-1.71,8.518-21.107-1.639-40.155,11.561C20.268,51.324,22.69,72.627,14.448,71.739Z"/><path class="cls-6" d="M56.042,31.407a61.513,61.513,0,0,1,7.675-.766c1.351-6.975-.652-17.491-3.025-22.061a52.132,52.132,0,0,0-9.5-3.027Q53.616,18.48,56.042,31.407Z"/><path class="cls-7" d="M50.75,21.211A16.111,16.111,0,0,1,57.027,7.176c-11.06-3.785-24.516-4.288-36.358,3.572C8.974,18.511,4.514,30.167,3.874,41.218c.4-.055.793-.1,1.192-.126,9.426-.577,16.878,6.7,17.844,15.784a14.176,14.176,0,0,1-.028,3.218c2.809-6.848,6.978-15.417,16.462-21.988a40.438,40.438,0,0,1,15.974-6.57A18.292,18.292,0,0,1,50.75,21.211Z"/><path class="cls-8" d="M3.555,43.642a17.531,17.531,0,0,1,14.264.4,17.259,17.259,0,0,1,8.311,9.493l3.488-1.979L22.512,38.725,5.9,38.058l-4.09,2.006Z"/><path class="cls-9" d="M.046,42.453A21.081,21.081,0,0,1,17.208,41.4c9.423,3.725,11.986,12.99,12.233,13.948a33.853,33.853,0,0,1,31.09-21.344A38.893,38.893,0,0,0,57.516,5.427c-2.566-.882-19.1-6.261-35.683,3.135C2.686,19.409.244,40.443.046,42.453Z"/><path class="cls-6" d="M28.324,5.589,44.087,36.306l4.109.184a34.06,34.06,0,0,1,5.126-1.613C53.545,19.823,46.154,6.83,41.048,3.136A42.869,42.869,0,0,0,28.324,5.589Z"/><path class="cls-7" d="M39.278,19.413c-2.58-4.967-5.372-9.821-8.009-14.759A41.5,41.5,0,0,0,7.3,22.378c4.05-1,7.373-.275,13.677,4.877C27.566,32.856,28.921,39.1,29.23,42a16.418,16.418,0,0,1-1.6,8.883,21,21,0,0,1,1.812,4.462,34.175,34.175,0,0,1,12.634-15.63,33.329,33.329,0,0,1,3.573-2.073A107.443,107.443,0,0,0,39.278,19.413Z"/><path class="cls-10" d="M5.053,24.936A26.862,26.862,0,0,1,23.887,29.92a27.034,27.034,0,0,1,10.424,18l3.252-2.587q-4.431-12-8.86-24.009L5.737,21.256Z"/><path class="cls-11" d="M3.243,23.228a28.41,28.41,0,0,1,20.119,3.407c12.226,7.5,13.15,21.682,13.212,22.968A20.319,20.319,0,0,1,51.953,37.18a49.975,49.975,0,0,0-4.024-19.3A49.959,49.959,0,0,0,36.943,1.839a47.458,47.458,0,0,0-33.7,21.389Z"/><path class="cls-12" d="M13.184,14.594a29.772,29.772,0,0,0-5.5,6.33,33.709,33.709,0,0,1,8.645.99,29.255,29.255,0,0,1,4.11-4.4A31.957,31.957,0,0,0,13.184,14.594Z"/><path class="cls-6" d="M34.831,2.17A47.715,47.715,0,0,0,24.644,5.2c5.143,6.318,7.3,10.756,12.584,17.165,2.4,2.044,4.711,2.985,5.374,1.618C45.839,17.3,37.874,5.3,34.831,2.17Z"/><path class="cls-13" d="M10.542,10.533l-.33,4.247,2.337-2.118s8.579,2.809,14.134,7.7c7,6.162,11.124,9.969,14.69,7.17L28.676,8.048S16.269,8.723,10.542,10.533Z"/><path class="cls-14" d="M10.542,10.533A37.266,37.266,0,0,1,29.586,20.1c7.595,7.377,10.37,8.122,12.285,7.146C45.46,25.414,40.65,7.315,29.728,0,29.728,0,18.372,2.413,10.542,10.533Z"/><path class="cls-12" d="M5.812,44.268c.313,7.578,2.347,13.07,3.927,13.023,1.869-.056,2.221-5.515,3.668-13.258A15.742,15.742,0,0,0,5.812,44.268Z"/><path class="cls-12" d="M7.116,26.456a38.274,38.274,0,0,0-3.124,12.32c2.395-.6,6.18-.977,8.5-.217a42.916,42.916,0,0,1,3.188-11.211A19.768,19.768,0,0,0,7.116,26.456Z"/><path class="cls-12" d="M31.264,7.446A16.784,16.784,0,0,1,33.4,6.572L28.953,2.138s-.9.232-2.3.745Q29.04,5.083,31.264,7.446Z"/><path class="cls-12" d="M25.487,3.334a30.7,30.7,0,0,0-9.624,6,2.677,2.677,0,0,1-.325.234,30.938,30.938,0,0,1,4.6,1.539A28.533,28.533,0,0,1,23.1,12.692,44.374,44.374,0,0,1,30.22,7.967Q27.935,5.569,25.487,3.334Z"/><path class="cls-15" d="M14.715,18.005l-1.65,2.926,2.567,1.481c.506-.9,1.042-1.753,1.55-2.675Z"/><path class="cls-15" d="M9.409,25.509,7.76,28.434l2.566,1.481c.507-.9,1.043-1.752,1.551-2.675Z"/><path class="cls-15" d="M33.55,7.65l-.61,1.69,1.681.4.448-1.779Z"/><path class="cls-15" d="M15.7,27.087l-.611,1.691,1.682.395.447-1.778Z"/><path class="cls-15" d="M20.767,7.366l1.093,1.2,1.025-1.176L21.652,6.282Z"/><path class="cls-15" d="M14.479,14.007l-1.212,1.326,1.4,1.011,1.1-1.47Z"/><path class="cls-15" d="M20.093,18.557l-.49,1.509,1.495.3.333-1.577Z"/><path class="cls-15" d="M27.872,3.412,26.223,6.337l2.566,1.481c.506-.9,1.043-1.752,1.551-2.675Z"/><path class="cls-15" d="M23.038,10.887l-1.213,1.326,1.4,1.012,1.1-1.471Z"/><path class="cls-15" d="M27.157,9.453l-.963,1.517,1.556.752.81-1.638Z"/><path class="cls-15" d="M8.146,34.548l-.555,1.709,1.693.341.378-1.788Z"/><path class="cls-15" d="M12.707,32.029l1.8-.018L14.287,30.3l-1.823.2Z"/></g></g></g></svg>