<svg xmlns="http://www.w3.org/2000/svg" xmlns:xlink="http://www.w3.org/1999/xlink" viewBox="0 0 84.292 78.477"><defs><style>.cls-1,.cls-25,.cls-9{isolation:isolate;}.cls-15,.cls-17,.cls-2,.cls-24{mix-blend-mode:multiply;}.cls-3{fill:url(#linear-gradient);}.cls-4{fill:url(#linear-gradient-2);}.cls-5{fill:#fff3cf;}.cls-6{fill:url(#linear-gradient-3);}.cls-7{fill:url(#linear-gradient-4);}.cls-8{fill:#ba744a;}.cls-15,.cls-25,.cls-8{opacity:0.5;}.cls-9{fill:#572802;opacity:0.3;}.cls-10{fill:url(#linear-gradient-5);}.cls-11{fill:url(#linear-gradient-6);}.cls-12{fill:#6c8c26;}.cls-13{fill:#9eb81d;}.cls-14,.cls-15,.cls-17{fill:#ae5681;}.cls-16{fill:#e5cde0;}.cls-17{opacity:0.3;}.cls-18{fill:url(#linear-gradient-7);}.cls-19{fill:#f0b89a;}.cls-20{fill:#f07c3c;}.cls-21{fill:url(#linear-gradient-8);}.cls-22{fill:#d7643f;}.cls-23{fill:url(#linear-gradient-9);}.cls-24{fill:#c45b00;opacity:0.1;}.cls-25{fill:#fff;}.cls-26{fill:#d3670e;}.cls-27{fill:#ffe8a7;}</style><linearGradient id="linear-gradient" x1="2.744" y1="63.895" x2="61.313" y2="63.895" gradientTransform="translate(10.453)" gradientUnits="userSpaceOnUse"><stop offset="0.277" stop-color="#f5a53e"/><stop offset="0.633" stop-color="#ef8f25"/><stop offset="1" stop-color="#d46d00"/></linearGradient><linearGradient id="linear-gradient-2" x1="1.075" y1="61.002" x2="32.217" y2="61.002" gradientTransform="translate(10.453)" gradientUnits="userSpaceOnUse"><stop offset="0" stop-color="#fff"/><stop offset="0.35" stop-color="#f8e3d1"/></linearGradient><linearGradient id="linear-gradient-3" x1="20.794" y1="55.659" x2="62.488" y2="55.659" xlink:href="#linear-gradient-2"/><linearGradient id="linear-gradient-4" x1="16.152" y1="63.982" x2="29.768" y2="51.679" gradientTransform="translate(10.453)" gradientUnits="userSpaceOnUse"><stop offset="0" stop-color="#ab5f31"/><stop offset="1" stop-color="#93512a"/></linearGradient><linearGradient id="linear-gradient-5" x1="-1.539" y1="45.603" x2="63.174" y2="45.603" gradientTransform="translate(10.453)" gradientUnits="userSpaceOnUse"><stop offset="0" stop-color="#ffd166"/><stop offset="0.16" stop-color="#ffce5d"/><stop offset="0.559" stop-color="#ffc94b"/><stop offset="0.85" stop-color="#ffc745"/></linearGradient><linearGradient id="linear-gradient-6" x1="-1.539" y1="44.902" x2="63.174" y2="44.902" gradientTransform="translate(10.453)" gradientUnits="userSpaceOnUse"><stop offset="0" stop-color="#ffc132"/><stop offset="1" stop-color="#fbaa2b"/></linearGradient><linearGradient id="linear-gradient-7" x1="190.463" y1="369.249" x2="91.84" y2="333.229" gradientTransform="matrix(0.995, 0.103, 0.103, -0.995, -141.492, 359.405)" gradientUnits="userSpaceOnUse"><stop offset="0" stop-color="#bb2c00"/><stop offset="0.27" stop-color="#bf3000"/><stop offset="0.53" stop-color="#ca3c00"/><stop offset="0.8" stop-color="#dc5000"/><stop offset="1" stop-color="#ee6400"/></linearGradient><linearGradient id="linear-gradient-8" x1="56.502" y1="359.465" x2="-7.021" y2="359.465" gradientTransform="matrix(1, 0, 0, -1, 10.453, 386.384)" gradientUnits="userSpaceOnUse"><stop offset="0" stop-color="#a12100"/><stop offset="0.3" stop-color="#a52500"/><stop offset="0.6" stop-color="#b13100"/><stop offset="0.91" stop-color="#c64400"/><stop offset="1" stop-color="#cd4b00"/></linearGradient><linearGradient id="linear-gradient-9" x1="13.683" y1="14.555" x2="61.83" y2="30.605" xlink:href="#linear-gradient"/></defs><title>cheeseburger</title><g class="cls-1"><g id="Layer_2" data-name="Layer 2"><g id="done" class="cls-2"><path id="_Path_" data-name=" Path " class="cls-3" d="M13.2,58.424c-.284-7.26,17.49-9.478,30.348-9.063,11.874.388,29.179,3.561,28.175,10.6.115,10.446-8.834,18.543-29.567,18.51C19,78.649,13.609,69.518,13.2,58.424Z"/><path id="_Path_9" data-name=" Path 9" class="cls-4" d="M39.975,70.855c-2.092,6.031-9,5.624-10.232-2.67C28.7,61,24.786,70.016,16.492,65.132c-3.747-2.206-6.059-7.414-4.439-11.541a8.5,8.5,0,0,1,5.358-4.949,30.939,30.939,0,0,1,16.2-.885c3.643.871,7.619,2.867,8.683,6.884C43.5,59.2,41.53,66.467,39.975,70.855Z"/><path class="cls-5" d="M70.3,43.689l-9.444-1.538c.09,1,.324,3.452.766,6.4A18.48,18.48,0,0,0,47.869,44.2c-8.221.887-15.2,7.692-16.622,16.572,0,0,3.037,8.393,11.087,8.393a8.44,8.44,0,0,0,3.7-.749c2.442-1.14,2.866-3.053,4.8-3.378a4.344,4.344,0,0,1,3.134.814c4.759,3.512,12.31,4.227,13.151-3.489a3.548,3.548,0,0,0,3.892-.051c3.06-2.14,1.7-8.1,1.158-11.08C72.045,50.563,71.021,43.806,70.3,43.689Z"/><path class="cls-6" d="M70.3,43.689l-9.444-1.538c.09,1,.324,3.452.766,6.4A18.48,18.48,0,0,0,47.869,44.2c-8.221.887-15.2,7.692-16.622,16.572,0,0,3.037,8.393,11.087,8.393a8.44,8.44,0,0,0,3.7-.749c2.442-1.14,2.866-3.053,4.8-3.378a4.344,4.344,0,0,1,3.134.814c4.759,3.512,12.31,4.227,13.151-3.489a3.548,3.548,0,0,0,3.892-.051c3.06-2.14,1.7-8.1,1.158-11.08C72.045,50.563,71.021,43.806,70.3,43.689Z"/><path id="_Path_2" data-name="&lt;Path&gt;" class="cls-7" d="M69.293,40.606c6.094,3.476,6.06,10.649,1.891,15.367-4.373,4.949-16.654,8.984-29.647,8.984-12.76,0-22.835-2.365-27.416-8.693-2.743-3.788-3.293-11.211,3.4-16.367,4.865-3.749,8.175-5.216,24.539-5.216S64.955,38.132,69.293,40.606Z"/><path id="_Path_32" data-name=" Path 32" class="cls-8" d="M27.226,60.973c-.466-.592.153-2.357,2.61-2.267s5.739,2.01,7.3,2.131c5.175.415,6.751-3.638,9.55-4.271,2.241-.493,5.691,3.117,5.174,4.719C51.236,63.417,30.134,64.667,27.226,60.973Z"/><path id="_Path_33" data-name=" Path 33" class="cls-8" d="M19.479,58.312c-.295-.9,1.818-2.983,3.442-2.5,2.262.673,2.251,3.9,1.41,4.458C22.922,61.208,19.825,59.468,19.479,58.312Z"/><path class="cls-9" d="M69.293,40.606a37.426,37.426,0,0,0-11.566-4.5C57.213,36,56.7,35.9,56.18,35.8q-.495-.092-1.013-.176c-.188-.032-.376-.062-.565-.092a76.17,76.17,0,0,0-9.442-.809l-.389-.01c-.347-.009-.7-.016-1.055-.021q-.83-.012-1.657-.013h0c-9.137,0-14.2.458-17.743,1.515-.138.043-.277.084-.414.129l-.192.062c-1.618.554-2.948,1.615-4.479,2.258-.565.385-1.127.8-1.711,1.252-6.692,5.156-6.142,12.579-3.4,16.367.234.324.486.634.749.937,2.454-5.12,7-9.011,14.074-6.225,2.777,1.095,4.183,3.623,5.026,6.235-.39-1.207,3.868-4.257,4.746-4.719A9.693,9.693,0,0,1,46.35,52c4.99,1.6,7.082,6.757,13.4,5.239a10.8,10.8,0,0,0,8.037-9.827,26.15,26.15,0,0,1,2.3,9.642,11.829,11.829,0,0,0,1.1-1.077C75.353,51.255,75.387,44.082,69.293,40.606Z"/><path id="_Path_3" data-name="&lt;Path&gt;" class="cls-10" d="M17.68,33.965c6.892-4.522,39.24-3.434,45.222-1.938,6.891,1.722,12.048,8.839,10.425,11.908-1.875,3.546-5.4,1.046-7.669,2.615-2.072,1.434-.569,6.264-5.556,7.873-5.068,1.635-7.514-3.645-12.046-3.3-10.542.8-6.8,9.357-14.284,9.357-4.144,0-5.213-6.416-6.55-10.426-.735-2.2-5.678-1.4-8.121-1.157-2.525.255-5.444,2.011-7.9.61C6.65,46.907,9.854,39,12.516,36.253a7.552,7.552,0,0,1,3.448-2C16.382,34.137,17.335,34.191,17.68,33.965Z"/><path class="cls-11" d="M62.9,32.027c-5.982-1.5-38.33-2.584-45.222,1.938-.345.226-1.3.172-1.716.288a7.552,7.552,0,0,0-3.448,2C9.854,39,6.65,46.907,11.2,49.506c2.455,1.4,5.374-.355,7.9-.61,2.443-.246,7.386-1.047,8.121,1.157.949,2.848,1.765,6.909,3.643,9.023a4.642,4.642,0,0,1,4.777-4.329,4.549,4.549,0,0,1,3.839,1.847c1.041-1.8,2.184-3.768,5.143-4.8a13.544,13.544,0,0,0,.881-1.8,5.983,5.983,0,0,1,1.426-1.545,4.36,4.36,0,0,1,4.177-.722c.593.24,1.124.626,1.737.811,2.185.657,2.931-1.71,5.254-.681a9.844,9.844,0,0,1,4.46,4.108,5.178,5.178,0,0,1,.3.651c1.682-2.1,1.266-5.007,2.8-6.066,2.266-1.569,5.794.931,7.669-2.615C74.95,40.866,69.793,33.749,62.9,32.027Z"/><path id="_Path_34" data-name=" Path 34" class="cls-12" d="M84.292,42.308s-9.884-26.7-37.107-13.724C47.185,28.584,53.42,60.053,84.292,42.308Z"/><path id="_Path_35" data-name=" Path 35" class="cls-12" d="M44.132,23.241S14.133,25.392,3.6,45.2C3.6,45.2,31.843,53.109,44.132,23.241Z"/><path id="_Path_37" data-name=" Path 37" class="cls-13" d="M53.889,26.383c-3.575.39-11.267-.009-16.659,2.925C25.318,35.787,20.376,47.8,20.277,53.467c7.9,1.09,16.675-1.458,23.5-5.57C51.67,43.144,54.865,35.788,53.889,26.383Z"/><path id="_Compound_Path_" data-name="&lt;Compound Path&gt;" class="cls-14" d="M58.833,23.153c-6.886.211-14.84,5.1-14.731,10.514.113,5.594,7.5,10.1,16.038,9.9,8.657-.207,14.443-4.7,14.509-10.036C74.717,27.932,66.165,22.928,58.833,23.153Zm1.135,16.611c-6.282.15-11.708-2.9-11.784-6.708-.073-3.679,5.784-7.014,10.851-7.167,5.393-.163,11.678,3.228,11.62,7.033C70.6,36.547,66.337,39.612,59.968,39.764Z"/><path id="_Path_4" data-name="&lt;Path&gt;" class="cls-15" d="M58.833,23.153c-6.886.211-14.84,5.1-14.731,10.514.064,3.186,2.489,6.018,6.141,7.829a17.337,17.337,0,0,1,.208-4.478,5.322,5.322,0,0,1-2.267-3.962c-.073-3.679,5.784-7.014,10.851-7.167,5.393-.163,11.678,3.228,11.62,7.033A5.566,5.566,0,0,1,68.417,37.1a19.207,19.207,0,0,1,.412,4.449c3.625-1.848,5.78-4.778,5.82-8.018C74.717,27.932,66.165,22.928,58.833,23.153Z"/><path id="_Compound_Path_2" data-name="&lt;Compound Path&gt;" class="cls-16" d="M58.758,20c-6.887.211-14.84,5.1-14.731,10.514.113,5.595,7.5,10.1,16.038,9.9,8.657-.207,14.443-4.7,14.509-10.036C74.642,24.781,66.09,19.777,58.758,20Zm1.173,17.08c-6.707.16-12.5-3.1-12.581-7.161-.078-3.928,6.175-7.488,11.584-7.651,5.758-.174,12.466,3.445,12.405,7.508C71.28,33.648,66.729,36.92,59.931,37.082Z"/><path id="_Path_5" data-name="&lt;Path&gt;" class="cls-17" d="M58.758,20c-6.887.211-14.84,5.1-14.731,10.514.065,3.229,2.555,6.093,6.288,7.9a28.818,28.818,0,0,1,6.343-1.533c-5.215-.76-9.241-3.583-9.308-6.963-.078-3.928,6.175-7.488,11.584-7.651,5.758-.174,12.466,3.445,12.405,7.508-.051,3.31-3.389,6.18-8.607,7.044a18.405,18.405,0,0,1,5.848,1.662c3.73-1.842,5.953-4.814,5.994-8.106C74.642,24.781,66.09,19.777,58.758,20Z"/><path id="_Compound_Path_3" data-name="&lt;Compound Path&gt;" class="cls-14" d="M27.358,27.908c-6.887.211-15-.679-14.731,10.514.133,5.593,7.5,10.1,16.038,9.9,8.656-.206,14.443-4.7,14.508-10.036C43.242,32.686,34.69,27.683,27.358,27.908Zm1.135,16.611c-6.282.15-11.709-2.905-11.784-6.708-.073-3.68,5.784-7.014,10.85-7.167,5.394-.163,11.678,3.227,11.62,7.033C39.124,41.3,34.861,44.367,28.493,44.519Z"/><path id="_Path_6" data-name="&lt;Path&gt;" class="cls-15" d="M27.358,27.908c-3,.092-6.234-.025-8.905.739a8.762,8.762,0,0,1,1.967,4.129,15.291,15.291,0,0,1,7.139-2.132c5.394-.163,11.678,3.227,11.62,7.033-.052,3.451-3.92,6.392-9.786,6.8a17.494,17.494,0,0,1-.067,3.818c8.288-.414,13.784-4.815,13.847-10.01C43.242,32.686,34.69,27.683,27.358,27.908Z"/><path id="_Compound_Path_4" data-name="&lt;Compound Path&gt;" class="cls-16" d="M27.289,24.994c-6.887.212-14.841,5.1-14.732,10.514.113,5.595,7.5,10.1,16.038,9.9C37.252,45.2,43.038,40.7,43.1,35.37,43.172,29.773,34.62,24.77,27.289,24.994Zm1.179,17.169c-6.787.162-12.65-3.138-12.731-7.247-.079-3.975,6.249-7.578,11.722-7.743,5.827-.176,12.616,3.487,12.553,7.6C39.953,38.687,35.348,42,28.468,42.163Z"/><path id="_Path_32-2" data-name=" Path 32" class="cls-18" d="M2.378,21.374s21.82,13.646,42.5-1.586C61.526,7.517,70.006,4.923,77.349,3.577l5.1,14.858S58.52,22.45,47.019,29.292C30.09,39.32,16.847,41.563,0,37.735,0,37.735,1.585,29.292,2.378,21.374Z"/><path id="_Path_33-2" data-name=" Path 33" class="cls-19" d="M1.525,28.335a37.2,37.2,0,0,0,13.012,2.894l2.505-2.924s-8.54,0-15.158-2.5C1.757,26.66,1.645,27.513,1.525,28.335Z"/><path id="_Path_34-2" data-name=" Path 34" class="cls-19" d="M77.962,5.476C72.869,6.493,61.511,9.469,51.648,16.969c-7.949,6.05-2.9,2.012,7.007-2.109,5.6-2.318,13.31-5.421,20.271-6.5Z"/><path id="_Path_35-2" data-name=" Path 35" class="cls-20" d="M.7,33.741c5.639,1.735,25.709,6.648,43.371-4.6.747-.486,1.495-.95,2.288-1.406-3.814,0-6.6-.546-10.746,1.555C21,36.68,8.158,34.392,1.114,30.907.957,31.939.808,32.9.666,33.749Z"/><path class="cls-21" d="M81.005,14.345A111.7,111.7,0,0,0,44.1,29.143C26.4,40.359,6.334,35.476.725,33.741.4,35.693.15,37.091.067,37.563a.349.349,0,0,1-.037.172c16.817,3.828,30.06,1.585,46.952-8.443C58.505,22.45,82.411,18.435,82.411,18.435Z"/><path id="_Path_36" data-name=" Path 36" class="cls-22" d="M80.22,12.049l-.628-1.892c-2.767.516-5.818,1.368-5.586,2.049S77.349,12.527,80.22,12.049Z"/><path id="_Path_58" data-name=" Path 58" class="cls-23" d="M11.127,27.987C8.992,20.8,19.388,1.31,39.343.092c25.4-1.55,36.525,16.836,33.54,26.546-2.313,7.522-14.7,11.341-31.4,12.561C27.33,40.214,13.23,35.068,11.127,27.987Z"/><path class="cls-24" d="M70.82,14.478a28.776,28.776,0,0,1-6.634,11.765c-6.088,6.089-16.013,10.04-24.623,10.04-9.1,0-17.172-3.8-23.742-9.834a26.674,26.674,0,0,1-4.22-4.98,11.815,11.815,0,0,0-.474,6.518c2.1,7.081,16.2,12.227,30.358,11.212,16.7-1.22,29.085-5.039,31.4-12.561C73.928,23.239,73.241,18.776,70.82,14.478Z"/><path id="_Path_59" data-name=" Path 59" class="cls-25" d="M14.789,19.934c-1.55-1.218,4.547-8.647,5.755-7.859C21.408,12.984,15.716,20.731,14.789,19.934Z"/><path id="_Path_60" data-name=" Path 60" class="cls-25" d="M22.647,9.64c-1.073-1.056,3.509-4,4.2-2.814C27.37,7.682,23.422,10.526,22.647,9.64Z"/><path id="_Path_61" data-name=" Path 61" class="cls-26" d="M64.417,25.71a1.405,1.405,0,0,1,.476,1.873,1.278,1.278,0,0,1-1.692.546,1.4,1.4,0,0,1-.477-1.872A1.279,1.279,0,0,1,64.417,25.71Z"/><path id="_Path_62" data-name=" Path 62" class="cls-26" d="M67.126,20.319a1.016,1.016,0,0,1,.446,1.327.931.931,0,0,1-1.269.461c-.021-.011-.042-.022-.062-.034a1.016,1.016,0,0,1-.445-1.327.931.931,0,0,1,1.269-.461Z"/><path id="_Path_63" data-name=" Path 63" class="cls-26" d="M62.874,19.43a.893.893,0,0,1,.518,1.123.826.826,0,0,1-1.3.409.893.893,0,0,1-.517-1.123.832.832,0,0,1,1.073-.538A.849.849,0,0,1,62.874,19.43Z"/><path id="_Path_65" data-name=" Path 65" class="cls-27" d="M26.094,13.333c-.2-.482-3.6.256-2.3,1.628S26.282,13.786,26.094,13.333Z"/><path id="_Path_66" data-name=" Path 66" class="cls-27" d="M39.072,2.992c-.2-.475-3.594.263-2.3,1.628S39.275,3.475,39.072,2.992Z"/><path id="_Path_67" data-name=" Path 67" class="cls-27" d="M32.634,14.974c.157.379,3.763.04,2.722-1.559S32.507,14.625,32.634,14.974Z"/><path id="_Path_68" data-name=" Path 68" class="cls-27" d="M53.306,15.594c-.331-.223-3.088,2.241-1.343,2.913S53.645,15.816,53.306,15.594Z"/><path id="_Path_69" data-name=" Path 69" class="cls-27" d="M55.964,12.539c.121.395,3.744.334,2.838-1.337S55.836,12.144,55.964,12.539Z"/><path id="_Path_70" data-name=" Path 70" class="cls-27" d="M47.525,11.864c.129.395,3.751.334,2.838-1.336S47.4,11.447,47.525,11.864Z"/><path id="_Path_71" data-name=" Path 71" class="cls-27" d="M46.422,17.879c-.13-.658-3.435-.141-2.661,1.233S46.581,18.529,46.422,17.879Z"/><path id="_Path_72" data-name=" Path 72" class="cls-27" d="M30.749,21.12c.623-.141.416-3.733-1.2-2.783S30.127,21.254,30.749,21.12Z"/><path id="_Path_73" data-name=" Path 73" class="cls-27" d="M54.639,7.17c.216-.451-1.7-3.188-2.564-1.488S54.424,7.629,54.639,7.17Z"/><path id="_Path_74" data-name=" Path 74" class="cls-27" d="M43.226,13.243c.216-.452-1.7-3.188-2.564-1.488S43.011,13.7,43.226,13.243Z"/><path id="_Path_75" data-name=" Path 75" class="cls-27" d="M33.476,9.322c.215-.459-1.7-3.195-2.565-1.487S33.26,9.789,33.476,9.322Z"/><path id="_Path_76" data-name=" Path 76" class="cls-27" d="M38.337,11.614c.489-.016,1.67-3.067.172-3.055S37.854,11.615,38.337,11.614Z"/><path id="_Path_77" data-name=" Path 77" class="cls-27" d="M62.56,14.11c.482-.016,1.671-3.029.173-3.017S62.069,14.1,62.56,14.11Z"/><path id="_Path_78" data-name=" Path 78" class="cls-27" d="M44.908,6.426c.482-.016,1.664-3.029.165-3.055C43.681,3.35,44.418,6.42,44.908,6.426Z"/><path id="_Path_79" data-name=" Path 79" class="cls-27" d="M23.109,20.615c.318-.387-1.148-3.3-2.132-2.112S22.8,20.972,23.109,20.615Z"/></g></g></g></svg>