<svg xmlns="http://www.w3.org/2000/svg" xmlns:xlink="http://www.w3.org/1999/xlink" viewBox="0 0 81.519 75.34"><defs><style>.cls-1{isolation:isolate;}.cls-10,.cls-16,.cls-2,.cls-6{mix-blend-mode:multiply;}.cls-3{fill:url(#linear-gradient);}.cls-28,.cls-4{opacity:0.5;}.cls-4{mix-blend-mode:overlay;}.cls-5{fill:#e9dacc;}.cls-6{fill:#592214;}.cls-16,.cls-6{opacity:0.2;}.cls-7{fill:url(#linear-gradient-2);}.cls-8{fill:#e19e67;}.cls-9{fill:url(#linear-gradient-3);}.cls-10,.cls-16{fill:#8e181b;}.cls-10{opacity:0.1;}.cls-11,.cls-13,.cls-20,.cls-21{opacity:0.7;}.cls-12,.cls-13{fill:#ffa330;}.cls-14{fill:#8b3d15;}.cls-15{fill:url(#linear-gradient-4);}.cls-17{fill:url(#linear-gradient-5);}.cls-18{fill:#f48f20;}.cls-18,.cls-19,.cls-24{opacity:0.3;}.cls-19{fill:#ffc73b;}.cls-20,.cls-28,.cls-29{fill:#ffd36e;}.cls-21,.cls-24{fill:#ffb44a;}.cls-22{fill:url(#linear-gradient-6);}.cls-23{fill:url(#linear-gradient-7);}.cls-25{fill:url(#linear-gradient-8);}.cls-26{fill:url(#linear-gradient-9);}.cls-27{fill:#f59825;}</style><linearGradient id="linear-gradient" x1="26.346" y1="72.548" x2="29.655" y2="37.525" gradientTransform="translate(10.453)" gradientUnits="userSpaceOnUse"><stop offset="0" stop-color="#d63c1e"/><stop offset="0.33" stop-color="#c3361b"/><stop offset="0.688" stop-color="#b5321a"/><stop offset="1" stop-color="#b03119"/></linearGradient><linearGradient id="linear-gradient-2" x1="29.6" y1="57.016" x2="31.017" y2="12.03" gradientTransform="translate(10.453)" gradientUnits="userSpaceOnUse"><stop offset="0" stop-color="#fcf3eb"/><stop offset="1" stop-color="#f8e3d1"/></linearGradient><linearGradient id="linear-gradient-3" x1="7.57" y1="7.32" x2="18.169" y2="27.646" gradientTransform="translate(10.453)" gradientUnits="userSpaceOnUse"><stop offset="0" stop-color="#ef951c"/><stop offset="0.699" stop-color="#c95d12"/><stop offset="1" stop-color="#b74c0f"/></linearGradient><linearGradient id="linear-gradient-4" x1="8.575" y1="22.306" x2="24.115" y2="51.598" gradientTransform="translate(10.453)" gradientUnits="userSpaceOnUse"><stop offset="0" stop-color="#ef951c"/><stop offset="0.738" stop-color="#c95d12"/><stop offset="0.998" stop-color="#b74c0f"/></linearGradient><linearGradient id="linear-gradient-5" x1="9.133" y1="28.146" x2="16.756" y2="37.911" gradientTransform="translate(10.453)" gradientUnits="userSpaceOnUse"><stop offset="0.002" stop-color="#ffa12b"/><stop offset="1" stop-color="#da7616"/></linearGradient><linearGradient id="linear-gradient-6" x1="37.258" y1="15.392" x2="44.387" y2="22.918" xlink:href="#linear-gradient-5"/><linearGradient id="linear-gradient-7" x1="37.268" y1="6.906" x2="52.023" y2="26.513" xlink:href="#linear-gradient-4"/><linearGradient id="linear-gradient-8" x1="38.642" y1="20.714" x2="51.957" y2="48.7" xlink:href="#linear-gradient-4"/><linearGradient id="linear-gradient-9" x1="36.504" y1="23.935" x2="47.919" y2="38.712" xlink:href="#linear-gradient-5"/></defs><title>fried_chicken</title><g class="cls-1"><g id="Layer_2" data-name="Layer 2"><g id="done" class="cls-2"><g id="_Group_" data-name="&lt;Group&gt;"><g id="_Group_2" data-name="&lt;Group&gt;"><path id="_Path_" data-name="&lt;Path&gt;" class="cls-3" d="M3.761,32.538s9.474,36.759,10.251,37.8c12.2,6.167,35.759,7.066,51.391.214.906-1.045,12.007-38.148,12.007-38.148Z"/><g class="cls-4"><path class="cls-5" d="M55.411,52.166,48.906,54.9,48.4,74.852c.354-.04.707-.081,1.06-.126l.486-19.113L54.4,53.736,55.018,73.8c.351-.073.7-.146,1.049-.226Z"/><path class="cls-5" d="M60.612,72.342c.371-.117.736-.241,1.1-.365l2.229-20.556-1.051-.114Z"/><path class="cls-5" d="M28,53.56l-6.82-2.047.63,21.689c.35.092.707.179,1.064.265l-.6-20.521L27,54.362l1.391,20.17q.531.079,1.069.149Z"/><path class="cls-5" d="M15.328,48.832l-1.044.16,3.525,22.972c.369.134.746.263,1.128.389Z"/><path class="cls-5" d="M43.151,55.04l-8.089-.331-.484,20.47c.35.022.7.04,1.055.058l.46-19.429,6.048.247.9,19.208c.352-.015.7-.031,1.055-.05Z"/></g><path class="cls-6" d="M70.723,54.413c3.218-10.409,6.687-22,6.687-22l-73.649.13A55.523,55.523,0,0,1,5.606,39.65h0c1.057,4.061,2.437,9.331,3.774,14.356a90.915,90.915,0,0,0,31.043,5.544A90.922,90.922,0,0,0,70.723,54.413Z"/><path id="_Path_2" data-name="&lt;Path&gt;" class="cls-7" d="M0,34.579C.16,22.418,18.94,11.918,39.9,11.67c23.935-.284,41.617,10.378,41.617,22.7C81.519,47.6,64.348,57.5,40.527,57.5,14.418,57.5-.151,46.225,0,34.579Z"/><path id="_Path_3" data-name="&lt;Path&gt;" class="cls-8" d="M3.931,34.638C3.772,24.3,23.188,14.816,39.547,14.245c17.1-.6,37.72,8.3,38.1,18.79.375,10.416-19.258,20.59-36.25,20.989C24.349,54.424,4.091,45.125,3.931,34.638Z"/><g id="_Group_3" data-name="&lt;Group&gt;"><path id="_Path_4" data-name="&lt;Path&gt;" class="cls-9" d="M38.384,11.232c-1.071-.16-3.077,1.553-3.077,1.553S33.5,7.654,31.455,7.438c-.948-.256-1.355,1.5-1.355,1.5s-4.872-4.913-6.92-5.275c0,0,2.272-2.119.98-3.235-1.777-1.535-9.978,1.31-10.5,4.019-.426,2.21,1.986,2.982,1.986,2.982a45.153,45.153,0,0,0-1.528,9.8c-.518-.2-1.615-1.617-2.392-1.221-.922.47-5.316,15.753,6.43,24.633,3.889,2.94,11.742,3.4,16.376,1.778C53.217,35.858,41.351,11.676,38.384,11.232Z"/><path class="cls-10" d="M25.766,17.051s2.006-1.795,2.429,2.323c0,0,6.942-1.568,11.307,2.049,0,0-.009-5.111,4.637-6.167l.423,16.472-20.8-6.863Z"/><g id="_Group_4" data-name="&lt;Group&gt;" class="cls-11"><path id="_Path_5" data-name="&lt;Path&gt;" class="cls-12" d="M18.179,14.825c1.837-.512,2.316-6.219.286-6.3S15.99,15.436,18.179,14.825Z"/></g><path id="_Path_6" data-name="&lt;Path&gt;" class="cls-13" d="M23.092,9a1.222,1.222,0,0,0,0,2.441A1.222,1.222,0,0,0,23.092,9Z"/></g><path id="_Path_7" data-name="&lt;Path&gt;" class="cls-14" d="M53.944,37.325C41.886,34.568,34.036,48.464,34.036,48.464a26.712,26.712,0,0,0-5.26-9.173c-.343,4.365-.606,8.736-.9,13.105A49.932,49.932,0,0,0,41.4,54.022a52.243,52.243,0,0,0,22.316-6.016C63.637,44.732,62.22,39.216,53.944,37.325Z"/><g id="_Group_5" data-name="&lt;Group&gt;"><path id="_Path_8" data-name="&lt;Path&gt;" class="cls-15" d="M42.011,27.7c-5.608-9.805-15.164-6.483-15.164-6.483S26.607,15.686,25.2,16s-4.945,5.546-4.945,5.546c-1.538-3.438-8.963.273-9.12,1.221s2.275,2.076,2.275,2.076C7.151,28.793,6.763,36.37,7.288,36.6s1.1-.148,2.21-1.171c-1.221,2.982-.483,6.459.085,6.905.506.4,1.771-.706,1.771-.706a15.423,15.423,0,0,0,1.078,4.59c6.681,4.756,16.311,7.242,25.409,7.749.232-1.267.438-2.411.582-3.246,1.06,1.556,2.421,2.092,2.928.558C42.01,49.28,45.446,33.7,42.011,27.7Z"/><path class="cls-16" d="M43.2,41.129a4.991,4.991,0,0,0-3.347-1.459,20.239,20.239,0,0,0,1.9,10.094A74.533,74.533,0,0,0,43.2,41.129Z"/><path id="_Path_9" data-name="&lt;Path&gt;" class="cls-17" d="M33.756,23.335c-2.706-1.625-8.271-.7-8.271-.7s.323-3.862-.485-3.971c-1.336-.179-4.849,5.765-4.849,5.765s-.215-3.1-2.424-3.208-5.01,1.087-5.279,1.849,2.262,1.74,2.262,1.74c-5.6,3.644-6.626,8.919-6.3,9.789s2.909-1.414,2.909-1.414a18.485,18.485,0,0,0-.8,6.309,19.1,19.1,0,0,0,11.7-.929C29.278,35.737,33.754,29.5,33.756,23.335Z"/><path id="_Path_10" data-name="&lt;Path&gt;" class="cls-18" d="M37.981,44.72a.908.908,0,1,0,.9.908A.914.914,0,0,0,37.981,44.72Z"/><g id="_Group_6" data-name="&lt;Group&gt;"><path id="_Path_11" data-name="&lt;Path&gt;" class="cls-19" d="M17.667,26.324c-1.366-1.67-6.016,3.344-4.736,4.507C14.03,31.829,19.084,28.057,17.667,26.324Z"/><path id="_Path_12" data-name="&lt;Path&gt;" class="cls-20" d="M17.861,26.678a1.1,1.1,0,0,0-.194-.354c-1.366-1.67-6.016,3.344-4.736,4.507a.6.6,0,0,0,.058.041C12.691,29.3,16.546,25.354,17.861,26.678Z"/></g><g id="_Group_7" data-name="&lt;Group&gt;"><path id="_Path_13" data-name="&lt;Path&gt;" class="cls-12" d="M16.079,33.341c-1.538-.666-3.477,3.357-1.8,4.059C16.1,38.159,17.556,33.98,16.079,33.341Z"/><path id="_Path_14" data-name="&lt;Path&gt;" class="cls-20" d="M16.339,33.918a.852.852,0,0,1,.308.23,1.033,1.033,0,0,0-.568-.807c-1.4-.607-3.138,2.684-2.16,3.8C13.678,35.76,15.132,33.4,16.339,33.918Z"/></g><path id="_Path_15" data-name="&lt;Path&gt;" class="cls-21" d="M19.048,38.259a1.221,1.221,0,0,0,0,2.44A1.221,1.221,0,0,0,19.048,38.259Z"/><path id="_Path_16" data-name="&lt;Path&gt;" class="cls-13" d="M20.645,5.782a.88.88,0,0,0,0,1.758A.88.88,0,0,0,20.645,5.782Z"/><g id="_Group_8" data-name="&lt;Group&gt;"><path id="_Path_17" data-name="&lt;Path&gt;" class="cls-12" d="M18.268,31.766c-.2-1.11,2.926-3.047,3.54-2.515.918.794,1.967,5.825.787,6.09C21.29,35.634,18.53,33.223,18.268,31.766Z"/><path id="_Path_18" data-name="&lt;Path&gt;" class="cls-20" d="M21.407,29.825c.378,0,1.062,1.028,1.309,1.422a4.723,4.723,0,0,0-.908-2c-.614-.532-3.74,1.4-3.54,2.515s1.812,2.735,3.154,3.352c-.91-.866-2.863-2.824-2.663-3.51C19.019,30.716,20.94,29.825,21.407,29.825Z"/></g><path id="_Path_19" data-name="&lt;Path&gt;" class="cls-18" d="M31.144,42.349c-.45.328.646,3.3,1.585,3.339.785.03,2.382-1.061,2.422-1.967C35.2,42.661,31.84,41.843,31.144,42.349Z"/><path id="_Path_20" data-name="&lt;Path&gt;" class="cls-18" d="M34.531,46.875a2.621,2.621,0,0,0-1.8,2.245c.066.925,2.573.876,3.111.333C36.521,48.766,35.12,46.875,34.531,46.875Z"/></g><g id="_Group_9" data-name="&lt;Group&gt;"><path id="_Path_21" data-name="&lt;Path&gt;" class="cls-22" d="M42.541,17.328s-2.491.6-2.444-.238c.185-3.319,3.593-8.951,4.935-9.171S46.5,9.624,46.5,9.624s5.111-6.746,6.8-6.931c1.983-.218,1.38,3.156,1.38,3.156s6.887-3.121,10.942-2.165c0,0,1.369.517.436,2.709a8.907,8.907,0,0,1,7.121,7.173s1.594-1.79,2.584-1.628.447,5.348-.325,6.54c0,0,2.4.394,2.271,2.13S72.032,43.27,42.861,35.125c0,0,.465,4.2-.872,5.3S31.5,32.68,33.443,30.507s8.182.934,8.182.934S39.966,22.65,42.541,17.328Z"/><path class="cls-16" d="M46.289,31.184,40.069,33.1S37.4,37.684,41.1,35.393a8.338,8.338,0,0,0-1.244,4.277c1,.691,1.8,1.026,2.135.755,1.337-1.1.872-5.3.872-5.3q1.35.378,2.633.672C46.007,33.31,46.289,31.184,46.289,31.184Z"/><path class="cls-23" d="M75.433,18.478c.772-1.192,1.315-6.378.325-6.54s-2.584,1.628-2.584,1.628a8.907,8.907,0,0,0-7.121-7.173c.933-2.192-.436-2.709-.436-2.709-4.055-.956-10.942,2.165-10.942,2.165s.6-3.374-1.38-3.156c-1.684.185-6.8,6.931-6.8,6.931S46.373,7.7,45.032,7.919s-4.75,5.852-4.935,9.171c-.047.842,2.444.238,2.444.238-2.275,4.7-1.246,12.106-.975,13.77a10.8,10.8,0,0,1,1.053.877,9.6,9.6,0,0,1,2.449,3.719C72.311,42.2,77.573,22.3,77.7,20.608,77.837,18.871,75.433,18.478,75.433,18.478Z"/><path id="_Path_22" data-name="&lt;Path&gt;" class="cls-24" d="M37.973,35.3c.247-1.384.543-3.361,1.975-4.575-1.742-.665-4.42-1.442-5.933-.653C34.119,31.425,35.769,34.068,37.973,35.3Z"/><path id="_Path_23" data-name="&lt;Path&gt;" class="cls-10" d="M75.433,18.478c.772-1.192,1.315-6.378.325-6.54s-2.584,1.628-2.584,1.628a9.168,9.168,0,0,0-2.092-4.332c1.883,3.64,1.952,9.4-4.95,10.438,2.362-3.812-9.376-2.893-9.838-1.96-.33.666,1.345,2.091,1.98,2.532-2.78,4.474-10.232,8.327-14.155,10.122A10.748,10.748,0,0,1,46.1,35.93c26.343,5.763,31.474-13.652,31.6-15.322C77.837,18.871,75.433,18.478,75.433,18.478Z"/><g id="_Group_10" data-name="&lt;Group&gt;" class="cls-11"><path id="_Path_24" data-name="&lt;Path&gt;" class="cls-21" d="M54.524,12.463c1.03-1.676-.868-5.6-2.05-5.254s-2.829,2.651-2.5,3.627S53.813,13.619,54.524,12.463Z"/></g><g id="_Group_11" data-name="&lt;Group&gt;" class="cls-11"><path id="_Path_25" data-name="&lt;Path&gt;" class="cls-21" d="M47.832,14.2c-1.738-.923-3.545,2.264-1.89,3.017C47.735,18.029,49.437,15.047,47.832,14.2Z"/></g></g><g id="_Group_12" data-name="&lt;Group&gt;"><path id="_Path_26" data-name="&lt;Path&gt;" class="cls-25" d="M73.142,39.334c.879-.888,1.611-4.585-.147-7.691A10.838,10.838,0,0,0,68.3,26.937s1.879-.6,1.62-1.612-6.194-4.538-8.3-3.557c0,0,2.876-1.724,2.215-2.631s-10.623-.953-11.062.822c-.259,1.047.879,1.626,1.033,1.8C45.6,23.064,39.593,30.9,39.873,34.585c.056.735,3.142-1.021,3.155-1.04A12.7,12.7,0,0,0,41.2,39.063c-.367,5.213,2.694,10.265,5.413,14.509,9.136-1.312,18.342-4.4,24.358-9.668a11.176,11.176,0,0,0,.2-4.968S72.614,39.867,73.142,39.334Z"/><path id="_Path_27" data-name="&lt;Path&gt;" class="cls-26" d="M63.775,24.309c-13.008-5.575-21.765,4.967-21.7,8.2.006.331,3.03-.675,3.03-.675s-3.185,4.69-2.536,7.818C48.821,41.918,62.536,36.7,63.775,24.309Z"/><g id="_Group_13" data-name="&lt;Group&gt;"><path id="_Path_28" data-name="&lt;Path&gt;" class="cls-12" d="M46.171,38.946c.908-.835-.217-3.993-1.9-2.96C42.731,36.932,45.04,39.986,46.171,38.946Z"/><path id="_Path_29" data-name="&lt;Path&gt;" class="cls-20" d="M44.664,36.32a1.375,1.375,0,0,1,1.255.011,1.173,1.173,0,0,0-1.648-.345c-1.106.68-.226,2.446.776,3C44.343,38.23,43.827,36.9,44.664,36.32Z"/></g><g id="_Group_14" data-name="&lt;Group&gt;"><path id="_Path_30" data-name="&lt;Path&gt;" class="cls-27" d="M56.087,37.681c.266-1.638-2.731-2.65-3.843-2.12s-2.078,1.693-1.6,2.6S55.869,39.024,56.087,37.681Z"/><path id="_Path_31" data-name="&lt;Path&gt;" class="cls-28" d="M52.529,36.136A3.626,3.626,0,0,1,56.07,37.2c-.312-1.346-2.828-2.114-3.826-1.638-1.112.53-2.078,1.693-1.6,2.6a.563.563,0,0,0,.169.182C50.725,37.517,51.571,36.592,52.529,36.136Z"/></g><g id="_Group_15" data-name="&lt;Group&gt;"><path id="_Path_32" data-name="&lt;Path&gt;" class="cls-27" d="M49.136,40.859a1.332,1.332,0,0,0,0,2.662A1.332,1.332,0,0,0,49.136,40.859Z"/><path id="_Path_33" data-name="&lt;Path&gt;" class="cls-28" d="M49.4,41.167a1.582,1.582,0,0,1,.89.427,1.2,1.2,0,0,0-1.152-.735,1.357,1.357,0,0,0-.811,2.388A1.334,1.334,0,0,1,49.4,41.167Z"/></g><g id="_Group_16" data-name="&lt;Group&gt;"><path id="_Path_34" data-name="&lt;Path&gt;" class="cls-12" d="M48.6,31.421s3.524-1.583,4.138-.509-3.259,4.17-5.237,3.5c-2.824-.95-.851-7.14.11-7.321S48.6,31.421,48.6,31.421Z"/><g id="_Group_17" data-name="&lt;Group&gt;" class="cls-11"><path id="_Path_35" data-name="&lt;Path&gt;" class="cls-29" d="M52.741,30.912c-.417-.729-2.172-.235-3.259.159.672-.048,2.527-.353,2.856.091.129.173.037.666-.215,1.252C52.66,31.832,52.942,31.264,52.741,30.912Z"/><path id="_Path_36" data-name="&lt;Path&gt;" class="cls-29" d="M47.614,27.1c-.76.143-2.149,4.036-1.306,6.133-.086-2.066.561-5.11,1.269-5.468.287-.145.513.259.813.861C48.248,27.745,48.01,27.02,47.614,27.1Z"/></g></g><path id="_Path_37" data-name="&lt;Path&gt;" class="cls-18" d="M70.906,34.954c-.826-.618-2.242.776-2.268,1.553s.339,1.651.978,1.645S71.584,35.461,70.906,34.954Z"/><path id="_Path_38" data-name="&lt;Path&gt;" class="cls-18" d="M68.784,32.447A.759.759,0,1,0,69,32.98.771.771,0,0,0,68.784,32.447Z"/><path id="_Path_39" data-name="&lt;Path&gt;" class="cls-18" d="M68.915,40.522c-.447-.516-3.062-.468-3.258.322-.192.774.5,1.924,1.043,1.966C67.531,42.875,69.256,40.914,68.915,40.522Z"/></g></g></g><path id="_Path_40" data-name="&lt;Path&gt;" class="cls-13" d="M51.654,14.553a.879.879,0,0,0,0,1.757A.879.879,0,0,0,51.654,14.553Z"/></g></g></g></svg>