<svg xmlns="http://www.w3.org/2000/svg" viewBox="0 0 73.8 62.76"><defs><style>.cls-1{fill:#64260f;}.cls-2{fill:#914020;}.cls-3{fill:#f6e1b6;}.cls-4{fill:#dead7a;}.cls-5{fill:#80a23e;}.cls-6{fill:#708f39;}.cls-7{fill:#9fcb3b;}</style></defs><title>cake</title><g id="Layer_2" data-name="Layer 2"><g id="Layer_3" data-name="Layer 3"><path id="_Path_" data-name="&lt;Path&gt;" class="cls-1" d="M.09,29.46s.58,3.35,1.44,7.81c.58,3,4.19,7.54,4.94,10.9.63,2.82-1.61,4.52-1,6.69a15.5,15.5,0,0,0,1.88,4.65c2.63,2.92,56.89,4.67,59.51,1.75.59-.65,1.24-2.52,1.91-5,.54-2-2.55-5.16-2-7.74.77-3.83,5.13-7.27,5.69-10.63.69-4.18,1.14-7.23,1.14-7.23Z"/><path id="_Path_2" data-name="&lt;Path&gt;" class="cls-2" d="M.09,29.46C-2.4,28.45,46.77,0,50,0S76.13,29,73.6,30.63,13.26,34.79.09,29.46Z"/><path id="_Path_3" data-name="&lt;Path&gt;" class="cls-3" d="M68.84,56c1.34-5.1,2.71-12.73,3.64-18.3-21.91,4.79-60.19,1.74-70.92-.31C2.63,43,4.13,50.19,5.51,54.9,36.91,57,58,56.06,68.84,56Z"/><path id="_Path_4" data-name="&lt;Path&gt;" class="cls-4" d="M71.85,41.39c.23-1.27.44-2.5.63-3.65C50,41.42,12.65,39.44,1.56,37.43c.24,1.26.5,2.59.78,4C10.61,42.15,36.55,44,71.85,41.39Z"/><path id="_Path_5" data-name="&lt;Path&gt;" class="cls-4" d="M4.65,51.7c.28,1.15.57,2.23.86,3.2C37.73,58.84,58.9,57.34,68.84,56c.27-1,.53-2.11.8-3.28C60,53.73,30.8,56,4.65,51.7Z"/><path id="_Path_6" data-name="&lt;Path&gt;" class="cls-4" d="M7,43.51A1.15,1.15,0,0,0,7,45.8,1.15,1.15,0,0,0,7,43.51Z"/><path id="_Path_7" data-name="&lt;Path&gt;" class="cls-4" d="M17.12,50a.92.92,0,0,0,0,1.84A.92.92,0,0,0,17.12,50Z"/><path id="_Path_8" data-name="&lt;Path&gt;" class="cls-4" d="M67,45.62a.92.92,0,0,0,0,1.84A.92.92,0,0,0,67,45.62Z"/><path id="_Path_9" data-name="&lt;Path&gt;" class="cls-4" d="M8.34,47.49a.92.92,0,0,0,0,1.84A.92.92,0,0,0,8.34,47.49Z"/><path id="_Path_10" data-name="&lt;Path&gt;" class="cls-4" d="M12.1,44.31a1.38,1.38,0,0,0,0,2.75A1.38,1.38,0,0,0,12.1,44.31Z"/><path id="_Path_11" data-name="&lt;Path&gt;" class="cls-4" d="M65.06,48.65a1.38,1.38,0,0,0,0,2.75A1.38,1.38,0,0,0,65.06,48.65Z"/><path id="_Path_12" data-name="&lt;Path&gt;" class="cls-5" d="M40.5,18.8s-1-10.91-13.15-11l.48,2.79a18.58,18.58,0,0,0-11.65,3.32s5.06,4,9.75,5.19l-3,2.09S33.51,26.85,40.5,18.8Z"/><path id="_Path_13" data-name="&lt;Path&gt;" class="cls-6" d="M39.15,18.43s-3.22-8,7.86-13l.79,3.17s2.35-3.45,11.4-3.7A64.23,64.23,0,0,1,55.06,13l3.17.66S52.89,25.21,39.15,18.43Z"/><path id="_Path_14" data-name="&lt;Path&gt;" class="cls-5" d="M40.28,17.39c-2.08.21-3.83,4.48-2.11,8.05l1.58-1.19s2,4,5.28,5.54l-.79-6.33,2.64.39S46.61,16.73,40.28,17.39Z"/><path id="_Path_15" data-name="&lt;Path&gt;" class="cls-7" d="M34.18,18.78c.81-2.44-5.4-8-13.64-4.26,0,0,4.17,3.22,8,4.07L26,20.68S32.76,23,34.18,18.78Z"/></g></g></svg>