<svg width="91" height="100" viewBox="0 0 91 100" fill="none" xmlns="http://www.w3.org/2000/svg">
<rect width="91" height="100" fill="white"/>
<g style="mix-blend-mode:multiply">
<g style="mix-blend-mode:multiply">
<path style="mix-blend-mode:multiply" d="M87.4386 30.9279L53.5598 32.8396C53.5598 32.8396 59.099 72.4506 59.2577 72.7789C60.6642 75.6722 81.6143 75.3738 83.0223 73.1679C83.1914 72.9044 87.4386 30.9279 87.4386 30.9279Z" fill="url(#paint0_linear_2_329)"/>
<g style="mix-blend-mode:multiply">
<path d="M86.5194 39.9743C87.0576 34.6931 87.4386 30.9279 87.4386 30.9279L53.5598 32.8396C53.5598 32.8396 53.9895 35.9149 54.613 40.3567C62.2017 39.2978 78.4906 39.2978 86.5194 39.9743Z" fill="#BF1B23"/>
</g>
<g style="mix-blend-mode:multiply">
<path d="M50.8987 33.256C50.9092 34.4595 55.7141 38.0535 70.6601 37.9106C84.6892 37.7751 90.0301 33.8337 90.0181 32.444C90.0061 31.0543 89.6056 27.8825 89.4941 26.8643C86.3502 24.8695 77.9666 24.2794 69.9221 24.4381C62.7788 24.5786 54.1324 25.6558 51.0589 27.6581C50.9272 29.3952 50.8898 32.0517 50.8987 33.256Z" fill="#D4DAD9"/>
</g>
<g style="mix-blend-mode:multiply" opacity="0.5">
<g style="mix-blend-mode:multiply" opacity="0.5">
<path d="M79.7227 30.9404L75.8984 31.3327L76.0878 37.6388C76.2135 37.6271 76.3408 37.6163 76.4621 37.6039L76.2854 31.7142L79.3799 31.3967L79.8881 37.1417L80.2624 37.0761L79.7227 30.9404Z" fill="#FAF7F3"/>
</g>
<g style="mix-blend-mode:multiply" opacity="0.5">
<path d="M72.8751 31.5164L69.0822 31.8131L69.2634 37.9106H69.6414L69.4722 32.2037L72.524 31.9652L72.8983 37.8507L73.277 37.8349L72.8751 31.5164Z" fill="#FAF7F3"/>
</g>
<g style="mix-blend-mode:multiply" opacity="0.5">
<path d="M85.0583 28.5641L81.8081 30.0543L82.4638 36.6081L82.8381 36.5159L82.2146 30.3212L84.7641 29.1575L85.7477 35.5941C85.8704 35.5459 85.9917 35.4977 86.1092 35.4495L85.0583 28.5641Z" fill="#FAF7F3"/>
</g>
<g style="mix-blend-mode:multiply" opacity="0.5">
<path d="M59.0204 37.0536L59.1955 30.9279L55.8047 30.1433L55.375 36.1501C55.497 36.19 55.6183 36.2333 55.7493 36.269L56.1475 30.6536L58.8078 31.2687L58.6439 36.9855C58.7659 37.0087 58.8954 37.0312 59.0204 37.0536Z" fill="#FAF7F3"/>
</g>
<g style="mix-blend-mode:multiply" opacity="0.5">
<path d="M87.0576 27.565L88.1505 34.4288C88.2732 34.354 88.3893 34.2792 88.4993 34.206L87.4274 27.4952L87.0576 27.565Z" fill="#FAF7F3"/>
</g>
<g style="mix-blend-mode:multiply" opacity="0.5">
<path d="M65.865 37.8158L65.9399 31.5928L62.2878 31.5139L62.1103 37.5133L62.4846 37.554L62.6515 31.9428L65.5544 32.0043L65.4862 37.7967C65.6105 37.8017 65.7393 37.8092 65.865 37.8158Z" fill="#FAF7F3"/>
</g>
<g style="mix-blend-mode:multiply" opacity="0.5">
<path d="M52.7282 35.0389L53.2012 28.3845L52.827 28.3521L52.3644 34.8261C52.4789 34.8967 52.5994 34.9674 52.7282 35.0389Z" fill="#FAF7F3"/>
</g>
</g>
<path style="mix-blend-mode:multiply" d="M89.5151 27.2824C89.548 31.1822 80.9675 34.4263 70.3525 34.5294C59.7375 34.6324 51.0979 31.5546 51.0642 27.6556C51.0305 23.7566 59.6102 20.3164 70.2267 20.2133C80.8432 20.1102 89.4821 23.3826 89.5151 27.2824Z" fill="url(#paint1_linear_2_329)"/>
<g style="mix-blend-mode:multiply">
<path d="M82.9279 26.7613C82.9481 29.1243 77.3042 31.0958 70.3226 31.1665C63.3409 31.2371 57.6633 29.3728 57.6438 27.0106C57.6244 24.6484 63.2661 22.558 70.2484 22.4907C77.2308 22.4234 82.9085 24.3982 82.9279 26.7613Z" fill="#C6CCCB"/>
</g>
<path style="mix-blend-mode:multiply" d="M59.4747 29.1974C61.6986 30.4167 65.7273 31.208 70.3225 31.1631C75.2554 31.1149 79.5176 30.1167 81.5888 28.702L80.7654 24.37L59.7801 24.7523L59.4747 29.1974Z" fill="url(#paint2_linear_2_329)"/>
<path style="mix-blend-mode:multiply" d="M80.7946 24.5861C80.8111 26.5501 76.12 28.1884 70.3151 28.2432C64.5102 28.2981 59.7929 26.7521 59.7764 24.7881C59.7599 22.824 64.4503 21.0869 70.2559 21.0312C76.0616 20.9755 80.7781 22.6245 80.7946 24.5861Z" fill="url(#paint3_linear_2_329)"/>
</g>
<g style="mix-blend-mode:multiply">
<path d="M73.3197 24.0649C73.3242 24.5761 71.8032 25.0017 70.2934 25.0166C68.7836 25.0316 67.2094 24.5287 67.2049 24.0192C67.2004 23.5097 68.7678 23.1565 70.2776 23.1415C71.7874 23.1265 73.3152 23.5538 73.3197 24.0649Z" fill="#B0B5B4"/>
</g>
<g style="mix-blend-mode:multiply">
<path d="M71.7126 0.555331L68.3531 24.7623C68.9858 24.9484 69.639 25.0341 70.2934 25.0166C70.9008 25.0184 71.5059 24.9346 72.0943 24.7673L75.4366 0.488007L71.7126 0.555331Z" fill="#38C0FC"/>
</g>
<g style="mix-blend-mode:multiply">
<path d="M71.7126 0.555331C72.2556 0.994833 72.9128 1.226 73.5847 1.21385C74.2566 1.2017 74.9067 0.946905 75.4366 0.488006C74.8593 0.156307 74.2169 -0.0111716 73.5669 0.000578249C72.917 0.0123281 72.2799 0.202939 71.7126 0.555331V0.555331Z" fill="#942500"/>
</g>
<g style="mix-blend-mode:multiply" opacity="0.7">
<g style="mix-blend-mode:multiply" opacity="0.7">
<path d="M57.8654 63.3709C60.7191 64.1576 63.631 64.6558 66.5656 64.8595C72.5233 65.2558 78.4965 64.4582 84.1997 62.5048C84.303 61.5232 84.4093 60.5017 84.5186 59.4511C79.4429 60.6921 74.2188 61.0054 69.0523 60.3787C64.9129 59.8713 60.8512 58.7639 56.9709 57.0848C57.2838 59.2899 57.5869 61.4252 57.8654 63.3709Z" fill="#FF9EA3"/>
</g>
<g style="mix-blend-mode:multiply" opacity="0.7">
<path d="M70.3532 71.149C74.7242 71.4118 79.1075 71.0487 83.395 70.0685C83.5163 68.9663 83.6608 67.6149 83.8239 66.0789C79.7896 67.1599 75.6613 67.751 71.512 67.8418C67.0744 67.9363 62.6419 67.4593 58.3033 66.4205C58.4328 67.3231 58.5533 68.1535 58.6618 68.8974C62.4668 70.1505 66.3905 70.9061 70.3532 71.149V71.149Z" fill="#FF9EA3"/>
</g>
</g>
</g>
<path d="M5.91782 37.9429C5.91782 37.9429 1.77841 22.5745 1.66613 21.519C1.55385 20.4634 5.09443 19.7901 5.09443 19.7901C5.09443 19.7901 9.81771 33.3049 9.81771 32.773C9.81771 32.241 17.3779 21.7766 17.3779 21.7766C17.3779 21.7766 18.0816 10.7055 19.3915 10.5226C20.3347 10.3896 21.8692 19.1169 22.5803 28.933L29.5492 29.066L31.9145 20.4551C31.9145 20.4551 36.5779 20.2888 36.1737 21.6519C36.054 22.0426 33.4491 46.6868 33.4491 46.6868L8.97934 46.9527L5.91782 37.9429Z" fill="#C55400"/>
<path d="M9.96742 39.4307C9.96742 39.4307 9.34613 9.12623 9.78777 8.6774C10.101 8.43051 10.4571 8.25867 10.8334 8.17282C11.2097 8.08696 11.5979 8.08897 11.9735 8.1787C12.3253 8.36987 16.2027 19.466 16.6444 39.3309C17.086 59.1959 9.96742 39.4307 9.96742 39.4307Z" fill="url(#paint4_linear_2_329)"/>
<path opacity="0.5" d="M9.78777 8.63584C9.49584 8.96 9.668 22.3668 9.78777 31.3849C9.84016 31.3849 9.91502 31.3849 9.93747 31.2852C12.6696 23.6551 11.9735 8.1787 11.9735 8.1787C11.6005 8.08303 11.2137 8.07425 10.8375 8.15294C10.4613 8.23162 10.1039 8.39605 9.78777 8.63584V8.63584Z" fill="#FFC56D"/>
<path d="M15.1248 44.692C15.1248 44.692 22.453 15.2935 23.3513 14.7948C24.5714 14.1049 27.094 15.1023 27.3335 15.9584C27.6928 16.9558 18.9574 56.3449 18.9574 56.3449C18.9574 56.3449 15.2671 46.4125 15.1248 44.692Z" fill="url(#paint5_linear_2_329)"/>
<path d="M23.2689 14.8862C22.5728 16 19.8257 26.3314 17.7148 34.5268L19.6236 38.3418C19.6236 38.0426 25.0055 17.039 25.0055 17.039C25.0055 17.039 23.4486 16 23.2689 14.8862Z" fill="url(#paint6_linear_2_329)"/>
<g style="mix-blend-mode:multiply" opacity="0.4">
<path d="M21.3302 45.4899C22.0788 42.0571 22.9171 38.1673 23.733 34.3522L23.5309 28.16L19.9604 25.9325C18.0741 32.9891 15.9931 41.2426 15.3344 43.8525L21.3302 45.4899Z" fill="#DF8C20"/>
</g>
<path d="M7.92391 42.7138C7.92391 42.7138 2.99104 18.56 2.84882 16.0831C2.72906 14.2629 6.64391 13.6644 7.23525 15.1605C7.56461 15.9917 12.9765 39.9294 13.1562 41.2177C13.3358 42.506 7.92391 42.7138 7.92391 42.7138Z" fill="url(#paint7_linear_2_329)"/>
<path d="M36.81 40.0706C36.81 40.0706 43.7939 17.7039 44.2954 17.014C44.7969 16.3242 47.6039 17.7039 47.6039 18.2026C47.6039 18.7013 42.4689 41.9408 42.4689 41.9408L36.81 40.0706Z" fill="url(#paint8_linear_2_329)"/>
<g style="mix-blend-mode:multiply" opacity="0.5">
<path d="M38.0151 40.4696L42.5064 41.9408C42.5064 41.9408 47.2596 20.4384 47.6189 18.3605C46.4886 19.4494 45.5829 19.5906 45.231 19.4909L42.4315 28.8166L41.915 23.9626C40.7099 27.6862 39.2876 32.1745 38.2472 35.466L38.0151 40.4696Z" fill="#DF8C20"/>
</g>
<path d="M35.6348 41.2592C35.6348 41.2592 36.286 14.0551 36.5555 13.066C36.825 12.0769 40.6201 11.653 40.8895 12.2348C41.159 12.8166 41.8701 37.4275 41.8701 41.999C41.8701 46.5704 35.6348 41.2592 35.6348 41.2592Z" fill="url(#paint9_linear_2_329)"/>
<g style="mix-blend-mode:multiply" opacity="0.5">
<path d="M40.0961 39.0649C39.2427 33.8286 37.5885 23.3642 37.5885 23.3642L36.4058 22.533C36.4058 29.6478 35.807 40.96 35.807 40.96C36.474 40.8829 37.1483 40.9534 37.7907 41.1674C38.4331 41.3814 39.0309 41.7346 39.5496 42.2068C40.4105 41.2177 40.9943 43.3787 41.6231 42.3979C41.5782 41.0431 40.141 40.8769 40.0961 39.0649Z" fill="#DF8C20"/>
</g>
<path d="M26.0984 38.7408C26.0984 38.7408 29.1899 11.5782 29.6091 10.2899C30.0282 9.00156 33.4191 6.88208 33.988 7.63844C34.4296 8.23688 31.5927 47.0857 31.5927 47.0857L26.0984 38.7408Z" fill="url(#paint10_linear_2_329)"/>
<g style="mix-blend-mode:multiply" opacity="0.3">
<path d="M28.4862 41.2177C28.4706 41.6709 28.5134 42.1244 28.6135 42.5642L29.7887 44.3429C30.3839 44.7316 31.0532 44.9594 31.7424 45.0078C32.3188 36.9455 34.3623 8.15377 33.988 7.60519C33.988 7.60519 31.5029 10.7886 31.2334 12.1766C30.9639 13.5647 28.6659 35.1584 28.4862 41.2177Z" fill="#DF8C20"/>
</g>
<path d="M35.3429 44.7667C36.271 39.8545 39.5047 18.427 37.8579 17.92C35.3204 17.147 31.3831 38.8073 29.8037 43.1626C31.5777 43.8358 33.5015 44.2016 35.3429 44.7667Z" fill="url(#paint11_linear_2_329)"/>
<path opacity="0.3" d="M31.9146 35.0171C36.5405 33.0805 37.319 20.4634 37.4238 17.9948C35.7471 18.9756 33.5988 27.9023 31.9146 35.0171Z" fill="#FFF46D"/>
<path d="M25.5071 46.6618C25.5071 46.6618 21.5473 26.7138 21.8916 25.7662C22.3015 24.8894 22.9739 24.1987 23.7929 23.813C24.238 23.6794 24.7035 23.6518 25.1589 23.732C25.6143 23.8123 26.0492 23.9985 26.4353 24.2784C27.0491 24.8603 29.639 39.1231 30.2977 42.1403C30.9564 45.1574 25.5071 46.6618 25.5071 46.6618Z" fill="url(#paint12_linear_2_329)"/>
<g style="mix-blend-mode:multiply" opacity="0.3">
<path d="M24.5489 26.3647C24.5489 26.9049 28.2916 45.0161 28.3365 45.4234C29.5417 44.667 30.5822 43.5782 30.2977 42.1403C29.639 39.1231 27.0491 24.8603 26.4353 24.2784C26.4353 24.2784 24.5489 25.8244 24.5489 26.3647Z" fill="#DF8C20"/>
</g>
<path d="M12.3553 40.2286C12.3553 40.2286 13.3358 19.4493 13.6877 18.1693C14.0395 16.8893 17.6774 17.28 18.0292 17.6706C18.381 18.0613 21.2778 35.0255 19.4589 45.7143C17.5277 56.8852 12.3553 40.2286 12.3553 40.2286Z" fill="url(#paint13_linear_2_329)"/>
<g style="mix-blend-mode:multiply" opacity="0.3">
<path d="M17.4079 37.0701C16.6593 37.2613 15.9108 35.2499 15.4467 33.92C15.4834 36.4303 15.2802 38.9378 14.8404 41.4005C14.7401 41.9461 14.6025 42.4824 14.4287 43.0047C15.2895 43.1709 17.1309 45.7226 18.8825 47.9917C19.1385 47.2543 19.3315 46.4918 19.4589 45.7143C20.6416 38.8405 19.8556 29.3486 19.0547 23.3642C19.137 28.6919 18.7103 36.721 17.4079 37.0701Z" fill="#DF8C20"/>
</g>
<path opacity="0.3" d="M13.8299 44.2764C14.3537 43.4184 14.6989 42.4417 14.8404 41.4171C16.7043 31.7839 13.6877 18.1444 13.6877 18.1444C13.3358 19.441 12.3553 40.2036 12.3553 40.2036C12.3553 40.2036 12.9616 42.1652 13.8299 44.2764Z" fill="#FFF46D"/>
<path d="M20.0652 53.7101C20.0652 53.7101 21.2629 32.1745 23.3513 30.6203C25.4397 29.066 26.7796 50.5683 26.7796 50.5683C26.7796 50.5683 22.2884 54.3335 20.0652 53.7101Z" fill="url(#paint14_linear_2_329)"/>
<path opacity="0.5" d="M15.4392 35.0919C15.4445 29.9838 14.9703 24.8889 14.0245 19.8899V19.8899C14.0245 19.8899 14.9677 30.9361 15.4392 35.0919Z" fill="#FFF46D"/>
<g style="mix-blend-mode:multiply" opacity="0.3">
<path d="M7.84906 40.7273C9.58311 41.1812 11.3597 41.4044 13.1412 41.3922C13.1527 41.3319 13.1527 41.2696 13.1412 41.2093C12.9691 39.946 7.78169 16.9974 7.25023 15.2353C6.98075 16.3325 6.50169 17.8203 5.71572 18.0613C4.72765 18.3605 3.36532 16.6732 2.83385 15.9335C2.82644 15.9802 2.82644 16.0281 2.83385 16.0748C2.96111 18.1361 6.38941 35.1917 7.53467 40.8603L7.84906 40.7273Z" fill="#DF8C20"/>
</g>
<g style="mix-blend-mode:multiply" opacity="0.3">
<path d="M7.26519 15.2436C6.99572 16.3408 6.51665 17.8286 5.73069 18.0696C5.68105 18.0777 5.63062 18.0777 5.58098 18.0696C5.87291 19.7735 7.91642 29.4899 7.39244 29.706C7.03315 29.8556 5.828 28.559 4.88484 27.4452C5.34894 29.8057 5.828 32.2327 6.26964 34.4436C6.32952 34.7262 6.39689 35.0005 6.46426 35.2748C6.68882 36.2473 6.86847 37.2364 7.02566 38.2338C7.56461 40.8852 7.92391 42.6805 7.92391 42.6805C7.92391 42.6805 13.3358 42.481 13.1637 41.1844C13.0065 40.054 8.82964 21.5273 7.57958 16.4073C7.43247 16.0351 7.32689 15.6443 7.26519 15.2436V15.2436Z" fill="#DF8C20"/>
</g>
<path d="M5.9852 44.3927C5.9852 44.3927 -0.527085 25.6997 0.0343184 24.6774C0.595722 23.6551 7.48227 31.734 15.4767 51.0836L5.9852 44.3927Z" fill="url(#paint15_linear_2_329)"/>
<path opacity="0.5" d="M5.58099 18.0945C5.63062 18.1026 5.68106 18.1026 5.73069 18.0945C6.35947 17.9034 6.8011 16.881 7.08555 15.9252C6.77116 16.4571 6.11245 17.5044 5.64087 17.6956C5.16929 17.8868 3.34286 16.4405 2.92368 16.0748C3.47759 16.7896 4.66028 18.2026 5.58099 18.0945Z" fill="#FFF46D"/>
<path opacity="0.5" d="M22.1985 25.974C22.2809 25.6332 24.0549 25.974 24.01 26.3148C23.9651 26.6556 22.1087 26.3148 22.1985 25.974Z" fill="#FFF46D"/>
<path opacity="0.5" d="M40.897 12.2847C40.6425 11.7112 37.072 12.0769 36.6004 12.9995C36.7143 13.3441 36.8907 13.659 37.1186 13.9249C37.3465 14.1908 37.621 14.402 37.9253 14.5455C38.8236 14.8696 40.4928 13.0577 40.897 12.2847Z" fill="#FFF46D"/>
<path d="M37.9178 14.5122C37.3701 14.2757 36.9253 13.8144 36.6753 13.2239C36.7576 13.4816 37.2292 14.7782 38.1723 14.8447C39.1155 14.9112 40.7473 12.8166 40.8147 12.4093C40.3281 13.2322 38.7786 14.853 37.9178 14.5122Z" fill="#FFF46D"/>
<path opacity="0.5" d="M45.1487 19.466C45.4406 19.6073 46.3913 19.5325 47.6114 18.3605C47.6149 18.308 47.6149 18.2552 47.6114 18.2026C47.6114 17.7039 44.8343 16.3158 44.3029 17.014C44.3253 17.014 44.505 19.1169 45.1487 19.466Z" fill="#FFF46D"/>
<g style="mix-blend-mode:multiply" opacity="0.5">
<path d="M47.6114 18.3605C47.6114 18.3605 47.6114 18.3023 47.6114 18.2774C47.6114 18.2525 47.6189 18.3273 47.6114 18.3605Z" fill="#DF8C20"/>
</g>
<path opacity="0.8" d="M31.2334 12.2099C31.0612 13.1158 30.0282 22.533 29.2797 30.6784C30.3728 24.5898 31.0261 18.414 31.2334 12.2099V12.2099Z" fill="#FFF46D"/>
<path opacity="0.3" d="M0.213966 26.2732C0.87268 29.174 2.87128 35.2665 4.2411 39.3475C6.11993 31.8753 2.32484 27.8608 0.213966 26.2732Z" fill="#FFF46D"/>
<path d="M3.84438 38.4416L9.3087 70.9236L38.1723 71.0234L43.3073 38.5579H32.8278C32.8278 38.5579 30.0657 45.1158 23.4486 45.1158C16.0755 45.1158 14.3239 38.4665 14.3239 38.4665L3.84438 38.4416Z" fill="#CC3A1E"/>
<path d="M13.77 39.0068C13.77 39.0068 15.7162 45.6561 23.0668 45.6561C25.1394 45.6904 27.1738 45.0351 28.908 43.7745C30.6423 42.5139 31.997 40.7058 32.7978 38.5829C32.7978 38.5829 29.9085 45.0078 23.2914 45.0078C15.9258 45.0078 14.3838 38.4083 14.3838 38.4083L3.90426 38.4831C7.17651 38.9301 10.4743 39.1052 13.77 39.0068V39.0068Z" fill="#F5EACE"/>
<g style="mix-blend-mode:multiply">
<path d="M32.2739 69.2031C30.2079 70.2088 23.2914 70.7574 20.0951 70.9652L38.1349 71.0234L43.2699 38.5579H38.1723C36.4208 51.6571 33.9132 68.4052 32.2739 69.2031Z" fill="#D8C9B4"/>
</g>
<g style="mix-blend-mode:overlay">
<path d="M5.35642 40.0291L10.0572 69.5356C10.0572 69.5356 9.95244 53.9512 5.35642 40.0291Z" fill="#F7E9BA"/>
</g>
<path d="M28.2018 58.8384L24.3319 54.4831L27.9174 50.0031L26.9368 48.8478L22.9321 53.0535L18.7103 49.039L17.9094 50.0031L21.7793 54.6244L17.9618 59.3538L19.1146 60.2597L23.1192 55.9792L27.4009 60.2597L28.2018 58.8384Z" fill="#F5EACE"/>
<path d="M26.57 80.906C27.356 73.0764 41.421 67.9979 52.0877 68.4384C61.9459 68.854 75.2025 74.2566 75.719 81.9532C76.2579 89.9242 68.2336 99.1335 50.9574 99.0587C34.2051 99.0005 25.7691 88.8519 26.57 80.906Z" fill="#CC6B28"/>
<path d="M29.0402 82.2192C29.0402 82.2192 30.3052 89.8244 33.2395 91.0546C36.6603 92.4842 39.9763 86.6577 41.683 86.8239C42.5139 86.907 43.1801 96.4156 48.9887 96.881C52.8661 97.1969 54.5429 92.9164 56.5489 92.9164C58.046 92.9164 59.0116 94.6951 60.9953 94.5787C62.3202 94.5039 64.3038 92.4759 64.4011 89.0099C64.476 86.1922 37.1319 77.8473 29.0402 82.2192Z" fill="#FFE9BD"/>
<path d="M54.1985 87.68C54.1985 87.68 59.7527 92.8416 63.3082 92.8416C66.9985 92.8416 73.2189 87.813 74.2593 82.7761C75.0902 78.7366 58.4727 72.5029 58.4727 72.5029L54.1985 87.68Z" fill="#FF925F"/>
<path opacity="0.5" d="M59.7826 83.8899L58.6374 85.2447C58.6374 85.2447 59.7227 89.1345 60.7108 92.1766C61.0876 92.3442 61.4724 92.4885 61.8636 92.6088C61.1525 89.093 59.7826 83.8899 59.7826 83.8899Z" fill="#FDE0C3"/>
<path opacity="0.5" d="M65.9805 92.1849C65.3967 88.7938 64.5284 84.7044 64.5284 84.7044L63.0762 85.6436C63.0762 85.6436 64.0119 89.4171 64.9026 92.5423C65.268 92.447 65.6279 92.3276 65.9805 92.1849V92.1849Z" fill="#FDE0C3"/>
<path d="M46.3239 82.9008L45.1562 73.2509C39.3176 76.1184 31.6825 80.8062 31.6077 82.9008C31.5178 85.9096 37.9103 92.9829 42.8806 92.1351C44.908 91.596 46.8527 90.7277 48.6519 89.5584C47.689 87.4255 46.9096 85.1964 46.3239 82.9008V82.9008Z" fill="#FF925F"/>
<path opacity="0.5" d="M34.1901 87.7964C34.5344 88.1787 34.9386 88.561 35.2979 88.9268C36.8923 87.547 38.8161 85.8182 39.8266 84.9704C41.5183 83.5657 41.7354 83.4743 41.406 83.1584C41.0767 82.8426 40.7997 83.0172 38.9284 84.3803C37.8505 85.1616 35.1782 87.1564 34.1901 87.7964Z" fill="#FDE0C3"/>
<path opacity="0.5" d="M39.1903 91.5533C40.0063 90.5974 41.7653 88.8104 42.6636 88.0208C44.2954 86.5247 44.8717 86.2919 44.5349 85.9678C43.996 85.4442 41.9749 87.3725 37.7382 90.772C38.2062 91.0676 38.6913 91.3286 39.1903 91.5533V91.5533Z" fill="#FDE0C3"/>
<path d="M49.1384 74.6473C45.6577 74.1569 41.1066 77.9969 40.4179 82.2857C39.7592 86.2753 41.5033 93.0909 45.7775 94.0966C50.0516 95.1023 55.9202 90.0073 55.3139 81.3714C55.007 76.9745 52.5293 75.1127 49.1384 74.6473Z" fill="#446C22"/>
<path d="M29.5043 69.7683C24.6986 70.5912 19.167 76.5257 20.3796 81.0805C21.5922 85.6353 29.1899 86.0177 33.9655 84.1475C37.0346 82.9423 39.4673 77.3236 38.8086 74.5891C38.1199 71.7216 32.9326 69.1699 29.5043 69.7683Z" fill="url(#paint16_linear_2_329)"/>
<path d="M48.7866 65.3631C44.4151 60.2265 35.8743 61.2488 31.3232 66.4935C27.6928 70.6494 26.2781 77.8888 28.9878 82.0031C33.1422 88.3034 46.6308 86.8655 50.3885 78.6784C52.2299 74.6805 51.7957 68.9039 48.7866 65.3631Z" fill="url(#paint17_linear_2_329)"/>
<g style="mix-blend-mode:multiply" opacity="0.4">
<path d="M42.8282 81.546C44.6846 80.6317 46.5709 79.7257 48.4048 78.7948L48.6519 67.4494L30.9265 68.987C30.9265 68.987 31.8921 78.0468 32.184 78.72L41.1066 82.2857L42.8282 81.546Z" fill="#A1BB3A"/>
</g>
<path d="M56.3169 71.1481C55.9129 71.8283 55.6002 72.5703 55.3887 73.3507C54.9183 75.7321 55.2177 78.2215 56.2346 80.3823C58.9967 86.2005 74.2444 88.6525 78.0245 81.2135C80.9213 75.6364 77.1786 64.4655 70.0151 62.6701C63.0313 60.9247 57.3873 69.2447 56.3169 71.1481Z" fill="url(#paint18_linear_2_329)"/>
<path d="M56.6986 74.7387C54.9845 77.7725 56.6986 82.826 59.326 85.9678C63.1585 90.5143 70.4418 91.3953 73.0991 88.32C75.4944 85.5522 75.2624 77.9054 66.3623 74.1153C62.6196 72.5527 58.3829 71.813 56.6986 74.7387Z" fill="url(#paint19_linear_2_329)"/>
<path d="M60.1793 69.2114C60.5836 66.1278 67.9342 64.0332 71.617 63.8088C77.8972 63.4348 82.7029 68.8956 82.5981 72.0707C82.4783 75.5782 78.3164 77.8888 71.2427 77.8307C65.0448 77.7642 59.7602 72.4364 60.1793 69.2114Z" fill="#446C22"/>
<path d="M65.2095 66.8592C61.13 66.9922 56.3843 70.1839 56.3992 73.8078C56.3992 77.6062 60.9803 80.6899 65.3368 80.6899C69.828 80.6899 74.4465 78.8862 74.8806 74.7304C74.9779 73.7995 75.0977 71.4805 74.5737 70.6327C72.9494 68.0312 68.5779 66.7512 65.2095 66.8592ZM65.1197 77.706C62.2528 77.573 58.3829 75.9106 58.2406 73.5003C58.0984 71.0899 61.8186 68.3138 65.2245 68.214C68.9672 68.106 73.4584 70.5496 73.2788 73.0681C73.0991 75.5865 68.3833 77.8639 65.1197 77.706Z" fill="#AE5681"/>
<path d="M65.2095 65.28C61.13 65.413 56.3843 68.6047 56.3992 72.2286C56.3992 76.027 60.9803 79.119 65.3368 79.119C69.828 79.119 74.7609 76.8665 74.7609 72.4114C74.7609 68.5964 69.6783 65.1387 65.2095 65.28ZM65.2919 77.1657C61.8336 77.1657 58.2107 74.8218 58.2032 71.9294C58.1957 69.0369 61.9459 66.7345 65.1871 66.6431C68.7351 66.5268 72.7698 69.1366 72.7698 72.0707C72.7698 75.4618 68.8624 77.1657 65.2919 77.1657Z" fill="#E5CDE0"/>
<path d="M38.1723 70.6493C34.4296 70.5995 29.7812 70.3751 30.0732 77.2405C30.2229 80.7314 34.2874 83.3746 38.3071 83.3746C42.3267 83.3746 46.6009 81.8036 46.9751 77.7226C47.5141 71.5886 43.1426 70.6909 38.1723 70.6493ZM38.0975 80.8062C35.3953 80.6899 31.69 78.5455 31.7124 76.8499C31.7349 75.1543 35.4551 73.093 38.0975 73.0764C41.0916 73.0764 45.1337 75.7694 45.0514 77.4982C44.9691 79.227 40.8596 80.8977 38.0975 80.773V80.8062Z" fill="#AE5681"/>
<path d="M38.1723 69.1034C34.4296 69.2197 30.0657 72.1371 30.0732 75.4868C30.0732 78.986 34.2874 81.8203 38.3071 81.8203C42.3267 81.8203 46.9602 79.7922 46.9602 75.6364C46.9602 72.1455 42.2818 68.987 38.1723 69.1034ZM38.1723 80.1081C35.021 79.9917 31.8247 78.08 31.7499 75.3039C31.675 72.5278 34.8189 69.9844 38.1648 69.8847C41.915 69.8182 45.8598 72.6109 45.7401 75.4452C45.6203 78.2795 41.6381 80.2327 38.1723 80.1081Z" fill="#E5CDE0"/>
<path d="M54.715 75.8442C50.9723 75.7943 46.3164 75.5699 46.6084 82.4353C46.7655 85.9262 50.8226 88.5694 54.8423 88.5694C58.8619 88.5694 63.1361 86.9984 63.5029 82.9174C64.0493 76.8166 59.6778 75.919 54.715 75.8442ZM54.715 85.4857C52.0128 85.361 48.4572 83.7153 48.4797 82.0197C48.5022 80.3242 51.9829 78.8281 54.5878 78.8281C59.079 78.8281 61.5716 80.7065 61.4893 82.427C61.407 84.1475 57.4472 85.6104 54.6851 85.4857H54.715Z" fill="#AE5681"/>
<path d="M54.6402 74.4312C50.8975 74.6223 46.5784 77.5813 46.6458 80.8893C46.7132 84.3304 50.9574 86.7574 54.962 86.9652C59.2811 87.1813 63.5927 84.7543 63.5253 80.7148C63.443 77.2488 58.7122 74.2151 54.6402 74.4312ZM54.8947 85.3361C51.9604 85.2862 48.2776 83.333 48.1578 80.6732C48.0381 78.0135 51.6161 75.4951 54.715 75.3371C58.1508 75.1626 62.0732 77.8306 62.0058 80.5236C61.9384 83.2166 58.0685 85.3943 54.8647 85.3361H54.8947Z" fill="#E5CDE0"/>
<path d="M22.6402 70.3668C22.4724 69.1595 22.4423 67.9336 22.5503 66.7179C23.8753 63.0275 29.4294 60.9829 33.5913 60.7751C39.1005 60.4925 45.8673 64.0997 45.7775 68.5382C45.6577 73.5834 41.6905 77.2239 33.8009 77.2987C28.9429 77.3403 23.3662 74.6639 22.6402 70.3668Z" fill="url(#paint20_linear_2_329)"/>
<path d="M22.3408 67.5657C22.6177 63.0026 28.8006 59.9938 33.5688 59.9273C39.0855 59.8608 45.5454 63.7008 45.5454 68.1475C45.5454 72.3699 41.6905 75.8857 33.3293 75.9356C28.4413 75.9605 22.0713 72.0956 22.3408 67.5657Z" fill="#AFCE7C"/>
<path d="M23.6357 67.6239C23.7106 63.9086 29.1599 60.8914 33.5988 60.8416C38.5691 60.7834 44.2804 64.4073 44.2055 68.1392C44.1307 71.8712 39.2727 74.7304 33.5239 74.7304C28.4413 74.7304 23.5609 71.2977 23.6357 67.6239Z" fill="#DEEDB9"/>
<path d="M41.915 76.5091C41.915 75.4784 41.915 73.6748 42.4315 72.7771C44.2505 69.7018 49.0785 68.3886 52.7539 68.106C57.1178 67.7652 62.8292 69.0369 64.8203 72.3532C65.3443 73.1844 65.202 75.4867 65.202 76.401C65.202 80.2909 61.2273 84.3636 53.3078 84.3636C48.4722 84.3636 42.0273 80.9226 41.915 76.5091Z" fill="url(#paint21_linear_2_329)"/>
<path d="M42.1471 74.9964C42.1845 70.4166 48.1953 67.0171 52.941 66.6847C58.4427 66.2525 65.0598 69.6769 65.2993 74.1153C65.5239 78.3293 61.2647 82.9423 53.4949 82.9423C48.068 82.9008 42.1096 79.5345 42.1471 74.9964Z" fill="#AFCE7C"/>
<path d="M43.5244 74.8052C43.5244 70.8821 48.854 67.9564 53.0383 67.6405C57.8888 67.2416 63.7124 70.1756 63.922 73.974C64.1167 77.5896 60.3665 81.546 53.5248 81.546C48.7342 81.5543 43.4944 78.6701 43.5244 74.8052Z" fill="#DEEDB9"/>
<path d="M56.5639 64.4571C56.8409 59.7694 63.0238 56.6857 67.792 56.6192C72.1784 56.561 77.0439 58.8468 78.8853 62.1631C79.4592 63.1625 79.7989 64.3054 79.8734 65.4878C79.574 69.9429 75.2549 73.2758 67.4851 73.2758C62.6196 73.3091 56.287 69.0951 56.5639 64.4571Z" fill="url(#paint22_linear_2_329)"/>
<path d="M56.6537 63.2686C56.9307 58.6888 63.1361 55.6717 67.8818 55.6135C73.421 55.5387 79.8584 59.4036 79.8584 63.8587C79.8584 68.106 75.3672 71.9294 67.5674 71.9294C62.7244 71.9294 56.3768 67.8151 56.6537 63.2686Z" fill="#AFCE7C"/>
<path d="M57.7765 63.0857C58.031 59.0878 63.6376 56.4364 67.9492 56.4364C72.9494 56.3699 78.773 59.761 78.773 63.6343C78.773 67.3247 74.7085 70.6494 67.6722 70.6494C63.2633 70.6494 57.5295 67.0504 57.7765 63.0857Z" fill="#DEEDB9"/>
<path d="M52.0802 39.0649C34.8638 39.0649 24.2346 51.7403 25.013 62.4623C25.8589 73.974 40.65 79.7922 51.8032 79.7257C61.5342 79.6758 75.3073 75.1543 76.9915 64.2327C78.7057 53.1948 68.1139 39.0649 52.0802 39.0649Z" fill="url(#paint23_linear_2_329)"/>
<g style="mix-blend-mode:overlay" opacity="0.2">
<path d="M73.1291 49.9366C68.8624 43.8026 61.377 39.0649 52.0802 39.0649C38.2622 39.0649 28.6958 47.2187 25.8813 55.9792C28.2467 64.5652 37.8579 70.9901 49.3031 70.9901C62.5447 70.9901 73.2563 62.4208 73.2563 51.8732C73.2524 51.2253 73.2099 50.5783 73.1291 49.9366V49.9366Z" fill="#FFDCA6"/>
</g>
<g style="mix-blend-mode:overlay" opacity="0.3">
<path d="M28.359 56.5693C27.3859 49.9782 39.9164 42.4395 43.3298 43.4868C44.0783 43.7195 43.9061 45.2405 43.4944 46.7117C42.2668 51.0421 37.1094 54.907 34.4296 55.2893C37.087 57.5917 39.8491 61.9387 38.9658 63.0857C37.596 64.8312 29.0626 61.3818 28.359 56.5693Z" fill="white"/>
</g>
<g style="mix-blend-mode:overlay" opacity="0.8">
<path d="M34.1153 48.507C33.9842 48.5242 33.8634 48.5943 33.7758 48.7038C33.6881 48.8133 33.6397 48.9548 33.6397 49.1013C33.6397 49.2478 33.6881 49.3893 33.7758 49.4988C33.8634 49.6083 33.9842 49.6783 34.1153 49.6956C34.2463 49.6783 34.3671 49.6083 34.4547 49.4988C34.5424 49.3893 34.5908 49.2478 34.5908 49.1013C34.5908 48.9548 34.5424 48.8133 34.4547 48.7038C34.3671 48.5943 34.2463 48.5242 34.1153 48.507V48.507Z" fill="#ECDABD"/>
</g>
<g style="mix-blend-mode:overlay" opacity="0.8">
<path d="M34.9087 51.6655C34.8314 51.5171 34.7204 51.3939 34.5868 51.308C34.4462 51.2161 34.286 51.1673 34.1227 51.1667V51.1667C33.9618 51.1672 33.8041 51.216 33.6661 51.308L33.479 51.466C33.3696 51.5889 33.2898 51.7404 33.247 51.9065C33.2324 52 33.2324 52.0956 33.247 52.1891C33.2512 52.3578 33.294 52.5226 33.3712 52.6679C33.4485 52.8133 33.5577 52.9345 33.6886 53.0203C33.8271 53.1098 33.985 53.1557 34.1452 53.1532V53.1532C34.3051 53.1523 34.4619 53.1047 34.6001 53.0154C34.7382 52.926 34.8528 52.7979 34.9324 52.6439C35.012 52.4899 35.0537 52.3154 35.0535 52.1379C35.0533 51.9603 35.0111 51.786 34.9312 51.6322L34.9087 51.6655Z" fill="#ECDABD"/>
</g>
<g style="mix-blend-mode:overlay" opacity="0.8">
<path d="M36.7277 49.9948C36.5748 49.9948 36.4282 50.0622 36.3201 50.1823C36.212 50.3023 36.1513 50.4651 36.1513 50.6348C36.1513 50.8045 36.212 50.9673 36.3201 51.0874C36.4282 51.2074 36.5748 51.2748 36.7277 51.2748C36.8805 51.2748 37.0271 51.2074 37.1352 51.0874C37.2433 50.9673 37.304 50.8045 37.304 50.6348C37.304 50.4651 37.2433 50.3023 37.1352 50.1823C37.0271 50.0622 36.8805 49.9948 36.7277 49.9948V49.9948Z" fill="#ECDABD"/>
</g>
<g style="mix-blend-mode:overlay" opacity="0.5">
<path d="M41.3386 62.7449C41.1818 62.7449 41.0314 62.8141 40.9205 62.9373C40.8096 63.0604 40.7473 63.2274 40.7473 63.4016C40.7473 63.5757 40.8096 63.7427 40.9205 63.8659C41.0314 63.989 41.1818 64.0582 41.3386 64.0582C41.4955 64.0582 41.6459 63.989 41.7568 63.8659C41.8677 63.7427 41.93 63.5757 41.93 63.4016C41.93 63.2274 41.8677 63.0604 41.7568 62.9373C41.6459 62.8141 41.4955 62.7449 41.3386 62.7449V62.7449Z" fill="#ECDABD"/>
</g>
<g style="mix-blend-mode:overlay" opacity="0.5">
<path d="M39.9015 65.28C39.8212 65.1242 39.7049 64.995 39.5646 64.906C39.4544 64.8287 39.3303 64.7791 39.2011 64.7604C39.0718 64.7417 38.9404 64.7545 38.8161 64.7979C38.6284 64.856 38.4617 64.9778 38.3393 65.1462C38.2169 65.3146 38.1449 65.5212 38.1334 65.7372C38.1218 65.9532 38.1713 66.1678 38.2749 66.3511C38.3785 66.5344 38.5311 66.6771 38.7113 66.7595C38.8796 66.8381 39.065 66.8604 39.2445 66.8234C39.4241 66.7865 39.59 66.692 39.7218 66.5517C39.7821 66.4893 39.8327 66.4163 39.8715 66.3356C39.955 66.1751 39.9989 65.9931 39.9989 65.8078C39.9989 65.6225 39.955 65.4405 39.8715 65.28H39.9015Z" fill="#ECDABD"/>
</g>
<path d="M42.2594 54.3501C43.6816 54.2255 43.0827 56.7356 42.5513 56.9018C42.0198 57.0681 41.1141 54.4582 42.2594 54.3501Z" fill="#FFE8A7"/>
<path d="M46.7805 50.0114C46.3988 48.3907 44.2729 50.8426 44.5349 51.2582C44.7969 51.6738 47.1548 51.6738 46.7805 50.0114Z" fill="#FFE8A7"/>
<path opacity="0.5" d="M49.0112 56.2036C49.6175 54.7159 47.0051 54.8156 46.9153 55.306C46.8254 55.7964 48.4273 57.6166 49.0112 56.2036Z" fill="#FFE8A7"/>
<path d="M56.1372 47.4597C55.5983 47.5262 55.995 50.427 57.305 50.0862C58.8245 49.6873 56.8109 47.3766 56.1372 47.4597Z" fill="#FFE8A7"/>
<path d="M61.145 57.733C60.9878 57.1512 58.5251 58.1735 59.0865 59.5449C59.7377 61.1075 61.377 58.4312 61.145 57.733Z" fill="#FFE8A7"/>
<path opacity="0.5" d="M62.2528 51.9564C61.5043 51.8982 61.2722 48.6816 62.7169 49.2717C63.8921 49.7621 62.5522 51.973 62.2528 51.9564Z" fill="#FFE8A7"/>
<path d="M50.5232 62.7782C50.1789 61.4151 52.5592 61.5481 52.7688 62.0135C52.9784 62.6951 50.7777 63.7756 50.5232 62.7782Z" fill="#FFE8A7"/>
<path d="M51.646 42.3896C51.8032 43.7943 49.4678 43.2208 49.4004 42.7553C49.2058 42.0239 51.5263 41.3507 51.646 42.3896Z" fill="#FFE8A7"/>
<path opacity="0.5" d="M53.7644 48.5652C53.3153 49.2634 50.7702 47.734 51.9978 46.6784C52.9934 45.839 53.944 48.2992 53.7644 48.5652Z" fill="#FFE8A7"/>
<path opacity="0.5" d="M55.4636 44.9579C54.2285 45.7891 53.7943 43.2125 54.206 42.8052C54.6177 42.3979 56.4516 44.3179 55.4636 44.9579Z" fill="#FFE8A7"/>
<path opacity="0.5" d="M54.0563 51.9231C55.486 51.7984 54.8797 54.3086 54.3482 54.4748C53.8168 54.641 52.9185 52.0312 54.0563 51.9231Z" fill="#FFE8A7"/>
<path d="M54.6402 57.0099C54.9396 56.2868 57.6343 57.4587 56.6912 58.6223C55.9277 59.5616 54.5503 57.3008 54.6402 57.0099Z" fill="#FFE8A7"/>
<defs>
<linearGradient id="paint0_linear_2_329" x1="82.6936" y1="32.1805" x2="52.8599" y2="67.1662" gradientUnits="userSpaceOnUse">
<stop offset="0.002" stop-color="#CF3315"/>
<stop offset="0.118" stop-color="#D93616"/>
<stop offset="0.247" stop-color="#DE3717"/>
<stop offset="0.332" stop-color="#DC3313"/>
<stop offset="0.688" stop-color="#D82705"/>
<stop offset="1" stop-color="#D62300"/>
</linearGradient>
<linearGradient id="paint1_linear_2_329" x1="68.2244" y1="33.3042" x2="73.6125" y2="20.953" gradientUnits="userSpaceOnUse">
<stop stop-color="#FAF7F3"/>
<stop offset="1" stop-color="#EBECE9"/>
</linearGradient>
<linearGradient id="paint2_linear_2_329" x1="62.2443" y1="27.7678" x2="84.3584" y2="27.7678" gradientUnits="userSpaceOnUse">
<stop offset="0.306" stop-color="#E8EBEB"/>
<stop offset="0.795" stop-color="#DBE0DF"/>
<stop offset="1" stop-color="#D4DAD9"/>
</linearGradient>
<linearGradient id="paint3_linear_2_329" x1="77.641" y1="22.5605" x2="60.6643" y2="26.4923" gradientUnits="userSpaceOnUse">
<stop stop-color="#FAF7F3"/>
<stop offset="1" stop-color="white"/>
</linearGradient>
<linearGradient id="paint4_linear_2_329" x1="21.465" y1="21.7351" x2="-0.940248" y2="35.3087" gradientUnits="userSpaceOnUse">
<stop stop-color="#EF951C"/>
<stop offset="1" stop-color="#E46412"/>
</linearGradient>
<linearGradient id="paint5_linear_2_329" x1="23.3737" y1="12.2514" x2="18.7035" y2="44.4831" gradientUnits="userSpaceOnUse">
<stop stop-color="#EF951C"/>
<stop offset="1" stop-color="#E46412"/>
</linearGradient>
<linearGradient id="paint6_linear_2_329" x1="25.0804" y1="12.052" x2="19.5702" y2="29.0205" gradientUnits="userSpaceOnUse">
<stop stop-color="#FFC132"/>
<stop offset="1" stop-color="#F48120"/>
</linearGradient>
<linearGradient id="paint7_linear_2_329" x1="4.69022" y1="15.0691" x2="11.688" y2="41.098" gradientUnits="userSpaceOnUse">
<stop stop-color="#FFC132"/>
<stop offset="1" stop-color="#F48120"/>
</linearGradient>
<linearGradient id="paint8_linear_2_329" x1="50.0516" y1="12.667" x2="38.1693" y2="37.0248" gradientUnits="userSpaceOnUse">
<stop stop-color="#FFC132"/>
<stop offset="1" stop-color="#F48120"/>
</linearGradient>
<linearGradient id="paint9_linear_2_329" x1="36.9522" y1="11.5034" x2="40.0742" y2="40.7063" gradientUnits="userSpaceOnUse">
<stop stop-color="#FFC132"/>
<stop offset="1" stop-color="#F48120"/>
</linearGradient>
<linearGradient id="paint10_linear_2_329" x1="29.0327" y1="3.64052" x2="31.7808" y2="46.3376" gradientUnits="userSpaceOnUse">
<stop stop-color="#FFC132"/>
<stop offset="1" stop-color="#F48120"/>
</linearGradient>
<linearGradient id="paint11_linear_2_329" x1="38.7412" y1="0.751635" x2="30.9243" y2="45.7546" gradientUnits="userSpaceOnUse">
<stop stop-color="#FFC132"/>
<stop offset="1" stop-color="#F48120"/>
</linearGradient>
<linearGradient id="paint12_linear_2_329" x1="25.1342" y1="16.3731" x2="27.0989" y2="45.5361" gradientUnits="userSpaceOnUse">
<stop stop-color="#FFC132"/>
<stop offset="0.75" stop-color="#F48120"/>
</linearGradient>
<linearGradient id="paint13_linear_2_329" x1="14.1592" y1="15.1273" x2="17.823" y2="46.3071" gradientUnits="userSpaceOnUse">
<stop stop-color="#FFC132"/>
<stop offset="1" stop-color="#F48120"/>
</linearGradient>
<linearGradient id="paint14_linear_2_329" x1="23.2615" y1="24.1621" x2="23.4091" y2="44.6585" gradientUnits="userSpaceOnUse">
<stop stop-color="#FFCB3E"/>
<stop offset="1" stop-color="#F6982F"/>
</linearGradient>
<linearGradient id="paint15_linear_2_329" x1="-0.777678" y1="25.7406" x2="13.2942" y2="46.4901" gradientUnits="userSpaceOnUse">
<stop stop-color="#FFC132"/>
<stop offset="1" stop-color="#F48120"/>
</linearGradient>
<linearGradient id="paint16_linear_2_329" x1="19.2418" y1="79.1439" x2="35.429" y2="77.0188" gradientUnits="userSpaceOnUse">
<stop stop-color="#A3CD39"/>
<stop offset="0.17" stop-color="#9DC839"/>
<stop offset="0.41" stop-color="#8BBA3A"/>
<stop offset="0.69" stop-color="#6DA23B"/>
<stop offset="1" stop-color="#44823D"/>
</linearGradient>
<linearGradient id="paint17_linear_2_329" x1="27.5656" y1="73.9574" x2="51.4888" y2="73.9574" gradientUnits="userSpaceOnUse">
<stop stop-color="#FFF068"/>
<stop offset="0.49" stop-color="#D3D753"/>
<stop offset="1" stop-color="#A1BB3A"/>
</linearGradient>
<linearGradient id="paint18_linear_2_329" x1="69.9253" y1="87.8047" x2="64.8608" y2="70.4366" gradientUnits="userSpaceOnUse">
<stop stop-color="#FFF068"/>
<stop offset="0.49" stop-color="#D3D753"/>
<stop offset="1" stop-color="#A1BB3A"/>
</linearGradient>
<linearGradient id="paint19_linear_2_329" x1="71.1005" y1="91.3621" x2="63.712" y2="81.1324" gradientUnits="userSpaceOnUse">
<stop stop-color="#A3CD39"/>
<stop offset="0.17" stop-color="#9DC839"/>
<stop offset="0.41" stop-color="#8BBA3A"/>
<stop offset="0.69" stop-color="#6DA23B"/>
<stop offset="1" stop-color="#44823D"/>
</linearGradient>
<linearGradient id="paint20_linear_2_329" x1="22.468" y1="69.0286" x2="45.7775" y2="69.0286" gradientUnits="userSpaceOnUse">
<stop offset="0.02" stop-color="#80AA48"/>
<stop offset="1" stop-color="#697C34"/>
</linearGradient>
<linearGradient id="paint21_linear_2_329" x1="41.93" y1="76.2016" x2="65.2395" y2="76.2016" gradientUnits="userSpaceOnUse">
<stop offset="0.02" stop-color="#80AA48"/>
<stop offset="1" stop-color="#697C34"/>
</linearGradient>
<linearGradient id="paint22_linear_2_329" x1="56.5564" y1="64.9642" x2="79.8659" y2="64.9642" gradientUnits="userSpaceOnUse">
<stop offset="0.02" stop-color="#80AA48"/>
<stop offset="1" stop-color="#697C34"/>
</linearGradient>
<linearGradient id="paint23_linear_2_329" x1="47.6563" y1="38.7408" x2="54.8376" y2="77.5698" gradientUnits="userSpaceOnUse">
<stop stop-color="#F0B461"/>
<stop offset="1" stop-color="#CC6B28"/>
</linearGradient>
</defs>
</svg>
