<svg xmlns="http://www.w3.org/2000/svg" xmlns:xlink="http://www.w3.org/1999/xlink" viewBox="0 0 77.52 66.38"><defs><style>.cls-1{isolation:isolate;}.cls-2{fill:url(#linear-gradient);}.cls-3{fill:#dc3732;opacity:0.5;}.cls-3,.cls-5{mix-blend-mode:multiply;}.cls-4{fill:#efe1be;mix-blend-mode:overlay;}.cls-4,.cls-5{opacity:0.7;}.cls-5{fill:#dab156;}.cls-6{fill:#ffe8c7;}.cls-7{fill:url(#linear-gradient-2);}.cls-8{fill:#fbce86;}.cls-9{fill:url(#linear-gradient-3);}.cls-10{fill:url(#linear-gradient-4);}.cls-11{fill:url(#linear-gradient-5);}.cls-12{fill:url(#linear-gradient-6);}.cls-13{fill:url(#linear-gradient-7);}.cls-14{fill:#404641;}.cls-15{fill:#fbb454;}.cls-16{fill:#f69734;}.cls-17{fill:#f69128;}.cls-18{fill:#eee0c5;}.cls-19{fill:#e2ccac;}</style><linearGradient id="linear-gradient" x1="88.58" y1="95.4" x2="120.89" y2="44.42" gradientTransform="translate(-71.85 -15.87) rotate(-7.24)" gradientUnits="userSpaceOnUse"><stop offset="0" stop-color="#ffce6e"/><stop offset="1" stop-color="#fbb454"/></linearGradient><linearGradient id="linear-gradient-2" x1="103.53" y1="60.72" x2="140.9" y2="60.72" gradientTransform="translate(-71.85 -15.87) rotate(-7.24)" gradientUnits="userSpaceOnUse"><stop offset="0" stop-color="#e08d33"/><stop offset="1" stop-color="#d76b27"/></linearGradient><linearGradient id="linear-gradient-3" x1="88.11" y1="66.45" x2="102.66" y2="66.89" gradientTransform="translate(-71.85 -15.87) rotate(-7.24)" gradientUnits="userSpaceOnUse"><stop offset="0" stop-color="#7aa043"/><stop offset="1" stop-color="#6c8e3e"/></linearGradient><linearGradient id="linear-gradient-4" x1="1554.88" y1="-1036.83" x2="1543.41" y2="-1028.45" gradientTransform="matrix(-0.23, 0.97, 0.97, 0.23, 1422.2, -1219.12)" xlink:href="#linear-gradient-3"/><linearGradient id="linear-gradient-5" x1="34.59" y1="49.18" x2="39.06" y2="49.18" gradientTransform="translate(-23.84)" xlink:href="#linear-gradient-3"/><linearGradient id="linear-gradient-6" x1="113.33" y1="53.78" x2="121.7" y2="54.35" xlink:href="#linear-gradient-3"/><linearGradient id="linear-gradient-7" x1="69.98" y1="41.33" x2="73.91" y2="41.33" gradientTransform="translate(-23.84)" xlink:href="#linear-gradient-3"/></defs><title>pizza</title><g class="cls-1"><g id="Layer_2" data-name="Layer 2"><g id="Layer_3" data-name="Layer 3"><g id="_Group_" data-name="&lt;Group&gt;"><g id="_Group_2" data-name="&lt;Group&gt;"><path id="_Path_" data-name="&lt;Path&gt;" class="cls-2" d="M35.39,6.61S-2,52.57.08,55.65c.72,1.07,9.7,1.7,20.17,2.05,1.62,0,2,8.8,4.49,8.68C26.83,66.28,26.54,58,28,58c2.85.06,6.5,0,9.36,0,1.17,0,2.38,6.34,4.36,6.09,2.15-.27,1.66-6,2.88-6,12.09.06,21.91,0,21.91,0s9.69-15.58,2.44-32A32.47,32.47,0,0,0,35.39,6.61Z"/><path id="_Path_2" data-name="&lt;Path&gt;" class="cls-3" d="M6.8,52.71c-2.59-.39,6.13-14.8,8.53-14.27s-.82,8.9,2.5,7.86C22.32,44.9,28,36.62,27,34.46S20,36,18.61,34c-.68-1,7.42-13.79,10.58-15.19S26,30.72,34.05,21.49c4.16-4.81,4.41-7.88,3.77-9.73C37,9.29,34.5,8.31,37.67,9l.16,0C46.4,10.75,59,22.05,59,25.21s-6.17-3.88-9.92-1.9S50.8,38.17,53.77,37.9c5.92-.53,5.78-7.25,7.18-6.76s3,19.71.82,22.17C60.46,54.81,16.49,54.14,6.8,52.71Z"/><path id="_Path_3" data-name="&lt;Path&gt;" class="cls-4" d="M49.3,50.39c14.1-.62,9.59-26.91-1-31.73S35.06,35.52,34.45,37.26s-10.5-6.5-9.89-9.58c.55-2.79,12.86-12.8,8.81-18.56C28.3,15.41,14.9,32.2,6.71,43.83c3,1.57,4.3,5.13,3,10,2.18.55,10.09,1,11.56,1.38s2.15,6.84,3.46,6.67,1.1-14.13,2.7-16S35.2,51,49.3,50.39Z"/><g id="_Group_3" data-name="&lt;Group&gt;"><path id="_Compound_Path_" data-name="&lt;Compound Path&gt;" class="cls-5" d="M60.94,51.17A4,4,0,0,1,56.41,48a4.12,4.12,0,0,1,8.13-1A4,4,0,0,1,60.94,51.17Z"/><path id="_Compound_Path_2" data-name="&lt;Compound Path&gt;" class="cls-6" d="M64.86,45.35a4.94,4.94,0,0,0-1.63-2,5.57,5.57,0,0,0-7.43,1,5.32,5.32,0,0,0-1.12,3.82,4.82,4.82,0,0,0,1,2.43,5.33,5.33,0,0,0,3.44,1.9,5.6,5.6,0,0,0,4-1,5.12,5.12,0,0,0,1.67-2A5.21,5.21,0,0,0,64.86,45.35Zm-4.62,5.74a3.73,3.73,0,1,1,3.6-4.2A4,4,0,0,1,60.24,51.09Z"/><path id="_Path_4" data-name="&lt;Path&gt;" class="cls-6" d="M52.73,37.25l-.18,0c-2.55.32-4.9-1.11-5.16-3.16s1.66-4,4.21-4.34a5.46,5.46,0,0,1,2.75.34A7.66,7.66,0,0,1,55.66,29a7.11,7.11,0,0,0-8.1,1.35,5.16,5.16,0,0,0-1.35,3.92,4.5,4.5,0,0,0,1.16,2.47,6.16,6.16,0,0,0,3.93,1.89,7.27,7.27,0,0,0,2-.1A7.41,7.41,0,0,1,52.73,37.25Z"/></g><path id="_Path_5" data-name="&lt;Path&gt;" class="cls-7" d="M35.39,6.61s-1.3-5,3.85-6.49,45.41,10.74,37.17,57.5c0,0-4.64.26-10,.44C73.85,11.24,35.39,6.61,35.39,6.61Z"/><path id="_Path_6" data-name="&lt;Path&gt;" class="cls-8" d="M66.46,58.06s1.49-4.61,5.66-4.74c3.92-.12,4.29,4.3,4.29,4.3S71.6,58.05,66.46,58.06Z"/><path id="_Path_7" data-name="&lt;Path&gt;" class="cls-6" d="M32.47,32.62c-.44,1.71-2.06,3.52-3.87,3.6-2.12.1-4.83-1.44-4.89-3.59,0-1.48,1.4-3,2.75-3.68a6.93,6.93,0,0,1-.67-1.26c-2,.89-3.65,2.66-3.59,4.81.08,3,3.49,5.13,6.42,5.07s4.93-1.65,5.51-4.94C33.65,32.61,32.85,32.66,32.47,32.62Z"/><g id="_Group_4" data-name="&lt;Group&gt;"><path id="_Path_8" data-name="&lt;Path&gt;" class="cls-9" d="M34.79,37.22s-.4-3.53-4.88-3-6,6-5.78,6.52,2.65,2.26,6.53,1.64,5.22-3,5.39-3.81C36.15,38.09,35.63,37.35,34.79,37.22Z"/></g><g id="_Group_5" data-name="&lt;Group&gt;"><path id="_Path_9" data-name="&lt;Path&gt;" class="cls-10" d="M49,48.13s2-4.75,4.67-6.47c3.61-2.31,6.47-.89,7.48.52s1.58,4.9-1.22,6.54C56.19,50.91,51.43,49.38,49,48.13Z"/></g><g id="_Group_6" data-name="&lt;Group&gt;"><path id="_Path_10" data-name="&lt;Path&gt;" class="cls-11" d="M10.88,49.31c1,2.1,3.8,2.47,4.14,2.18s.46-2.66-1.11-4.31C12.75,46,10.14,47.83,10.88,49.31Z"/></g><g id="_Group_7" data-name="&lt;Group&gt;"><path id="_Path_11" data-name="&lt;Path&gt;" class="cls-12" d="M48.66,18.32c-.75.55-.84,6.38.79,8.37,2,2.44,7.49.7,6.07-4.06C54.62,19.59,49.41,17.76,48.66,18.32Z"/><path id="_Path_12" data-name="&lt;Path&gt;" class="cls-13" d="M46.28,39c-.36.27,0,3.18.77,4.13A1.78,1.78,0,0,0,50,41.21C49.53,39.75,46.63,38.76,46.28,39Z"/></g><path id="_Compound_Path_3" data-name="&lt;Compound Path&gt;" class="cls-14" d="M22.6,42.36a4.2,4.2,0,1,0-3.82,5.2A4.32,4.32,0,0,0,22.6,42.36Zm-3.85,3.19a2,2,0,0,1-2.32-1.8,2,2,0,1,1,2.32,1.8Z"/><path id="_Compound_Path_4" data-name="&lt;Compound Path&gt;" class="cls-14" d="M62.19,32.75A4.19,4.19,0,1,0,58.37,38,4.31,4.31,0,0,0,62.19,32.75Zm-3.7,3.1a2,2,0,1,1,1.7-2.47A2.1,2.1,0,0,1,58.49,35.85Z"/><path id="_Compound_Path_5" data-name="&lt;Compound Path&gt;" class="cls-14" d="M33.83,22.78a4,4,0,0,0-7.78,1.43,4,4,0,0,0,4.17,3.49A4.08,4.08,0,0,0,33.83,22.78Zm-3.57,2.94A1.93,1.93,0,0,1,28.07,24a1.9,1.9,0,0,1,3.74-.55A1.94,1.94,0,0,1,30.26,25.72Z"/><g id="_Group_8" data-name="&lt;Group&gt;"><path id="_Path_13" data-name="&lt;Path&gt;" class="cls-3" d="M37.81,35.48A.93.93,0,0,0,37,35a.92.92,0,0,0-.49.13.9.9,0,0,0-.4.44v0a.9.9,0,0,0,.06.83.93.93,0,0,0,.66.46h.29l.25-.07a.93.93,0,0,0,.38-.3A1,1,0,0,0,37.81,35.48Z"/><path id="_Path_14" data-name="&lt;Path&gt;" class="cls-3" d="M37.27,32.24a.61.61,0,0,0-.53.67.62.62,0,0,0,.68.53.6.6,0,0,0-.15-1.2Z"/><path id="_Path_15" data-name="&lt;Path&gt;" class="cls-15" d="M54.51,51.48a1,1,0,0,0-.93-.39h0a.86.86,0,0,0-.48.2,1,1,0,0,0,0,1.58l0,0a1,1,0,0,0,1.59-.53A1,1,0,0,0,54.51,51.48Z"/><path id="_Path_16" data-name="&lt;Path&gt;" class="cls-16" d="M22.51,38a.78.78,0,0,0-.67.87.78.78,0,1,0,.67-.87Z"/><path id="_Path_17" data-name="&lt;Path&gt;" class="cls-4" d="M45.34,32.07a.86.86,0,0,0-1.11-.45,2.11,2.11,0,0,0-.4.26A.75.75,0,0,0,44,33.16a1.1,1.1,0,0,0,1.08-.09A.84.84,0,0,0,45.34,32.07Z"/><path id="_Path_18" data-name="&lt;Path&gt;" class="cls-17" d="M19.68,50.81a1,1,0,0,0-.76-.2,1.19,1.19,0,0,0-.57.26,1,1,0,0,0-.17,1.31,1,1,0,0,0,.61.36.85.85,0,0,0,.61-.15h.05a.93.93,0,0,0,.4-.31A.9.9,0,0,0,19.68,50.81Z"/><path id="_Path_19" data-name="&lt;Path&gt;" class="cls-4" d="M43.58,34.5l-.14,0a.4.4,0,0,0,.1.79h.15A.41.41,0,0,0,43.58,34.5Z"/><path id="_Path_20" data-name="&lt;Path&gt;" class="cls-17" d="M17.28,48.76l-.13,0a.47.47,0,0,0-.19.83c-.05-.07,0,0,.07.06a.62.62,0,0,0,.25.11.64.64,0,0,0,.36-.06A.52.52,0,0,0,17.28,48.76Z"/><path id="_Path_21" data-name="&lt;Path&gt;" class="cls-17" d="M20.29,48.77a.37.37,0,0,0-.41.4.36.36,0,0,0,.49.29A.35.35,0,0,0,20.29,48.77Z"/></g><path id="_Path_22" data-name="&lt;Path&gt;" class="cls-16" d="M21.14,36.64c-.26-1,1.14-.93,1.16-.22S21.28,37.13,21.14,36.64Z"/><path id="_Path_23" data-name="&lt;Path&gt;" class="cls-3" d="M45.7,47.67c-.89-.43.13-1.71.68-1.26S46.15,47.89,45.7,47.67Z"/></g><path id="_Path_24" data-name="&lt;Path&gt;" class="cls-18" d="M40.2,47.25a32.65,32.65,0,0,0,3.65-5.12c.34-.63-3.59-3.26-4.07-2.59a34,34,0,0,0-3,5.58s-1.06-2.73-2.93-2.42c-1.69.27-3.48,5.12,1.12,8.42,4.32,3.09,9-1,8.54-2.54C43.09,47.26,40.2,47.25,40.2,47.25Z"/><g id="_Group_9" data-name="&lt;Group&gt;"><path id="_Path_25" data-name="&lt;Path&gt;" class="cls-18" d="M38.9,24.79a23.06,23.06,0,0,0,2.31,5.84c.35.58,4.38-1.19,4.16-1.93a18.9,18.9,0,0,0-2.89-5.31s3.46.34,4.07-1.13-2.55-5.51-8.14-3c-4.58,2.07-4.21,7.46-2.34,7.89C37.43,27.48,38.9,24.79,38.9,24.79Z"/></g><path id="_Path_26" data-name="&lt;Path&gt;" class="cls-19" d="M39.28,20.32c-2,.66-4.29,4.29-3,4.89S39.65,23,39.65,23s1.78,6.06,3.33,5.84S41,22,41,22s3.32.67,3.55-.44S42.39,19.29,39.28,20.32Z"/><path id="_Path_27" data-name="&lt;Path&gt;" class="cls-19" d="M41,42.74c-.79-.9-2.67.59-3.85,4.95,0,0-1.33-3.77-3-3.1s0,4.81,2.44,6,5.77-.89,5.32-1.55-3.55-.23-3.55-.23S42,43.92,41,42.74Z"/></g></g></g></g></svg>