<svg xmlns="http://www.w3.org/2000/svg" xmlns:xlink="http://www.w3.org/1999/xlink" viewBox="0 0 80.24 73.57"><defs><style>.cls-1{fill:#ffc410;}.cls-2{fill:url(#linear-gradient);}.cls-3{fill:url(#linear-gradient-2);}.cls-4{fill:#afd381;}.cls-5{fill:url(#linear-gradient-3);}.cls-6{fill:#c0d683;}.cls-7{fill:#4b6100;}.cls-8{fill:#fff;}.cls-9{fill:#5e7600;}.cls-10{fill:url(#linear-gradient-4);}.cls-11{fill:url(#linear-gradient-5);}.cls-12{fill:#405b00;}.cls-13{fill:#5e8c00;}.cls-14{fill:url(#linear-gradient-6);}.cls-15{fill:url(#linear-gradient-7);}.cls-16{fill:url(#linear-gradient-8);}.cls-17{fill:url(#linear-gradient-9);}.cls-18{fill:#fff6ee;}.cls-19{fill:#f9a11d;}.cls-20{fill:url(#linear-gradient-10);}.cls-21{fill:url(#linear-gradient-11);}.cls-22{fill:url(#linear-gradient-12);}.cls-23{fill:url(#linear-gradient-13);}.cls-24{fill:url(#linear-gradient-14);}.cls-25{fill:url(#linear-gradient-15);}.cls-26{fill:url(#linear-gradient-16);}</style><linearGradient id="linear-gradient" x1="64.14" y1="5.87" x2="60.41" y2="19.03" gradientUnits="userSpaceOnUse"><stop offset="0" stop-color="#7baa32"/><stop offset="1" stop-color="#5c862a"/></linearGradient><linearGradient id="linear-gradient-2" x1="16.58" y1="2.71" x2="26.62" y2="23.85" xlink:href="#linear-gradient"/><linearGradient id="linear-gradient-3" x1="42.98" y1="2.02" x2="41.93" y2="16.66" gradientUnits="userSpaceOnUse"><stop offset="0" stop-color="#ebffd5"/><stop offset="1" stop-color="#d9edb2"/></linearGradient><linearGradient id="linear-gradient-4" x1="9.38" y1="17.49" x2="20.15" y2="29.3" xlink:href="#linear-gradient-3"/><linearGradient id="linear-gradient-5" x1="47.83" y1="-1.96" x2="51.74" y2="15.83" gradientUnits="userSpaceOnUse"><stop offset="0" stop-color="#fff48b"/><stop offset="0.95" stop-color="#dbe660"/><stop offset="1" stop-color="#d9e55d"/></linearGradient><linearGradient id="linear-gradient-6" x1="0.24" y1="21.61" x2="10.06" y2="42.01" xlink:href="#linear-gradient"/><linearGradient id="linear-gradient-7" x1="83.96" y1="22.96" x2="70.02" y2="38.48" gradientUnits="userSpaceOnUse"><stop offset="0" stop-color="#8dbb3f"/><stop offset="1" stop-color="#699334"/></linearGradient><linearGradient id="linear-gradient-8" x1="55" y1="5.32" x2="51.8" y2="30.76" xlink:href="#linear-gradient-7"/><linearGradient id="linear-gradient-9" x1="45.48" y1="31.54" x2="62.61" y2="31.54" gradientUnits="userSpaceOnUse"><stop offset="0" stop-color="#8dbb3f"/><stop offset="1" stop-color="#8dbb3f"/></linearGradient><linearGradient id="linear-gradient-10" x1="14.47" y1="18.62" x2="30.42" y2="36.95" xlink:href="#linear-gradient-5"/><linearGradient id="linear-gradient-11" x1="38.15" y1="30.3" x2="45.36" y2="43.37" xlink:href="#linear-gradient-3"/><linearGradient id="linear-gradient-12" x1="39.73" y1="24.93" x2="49.06" y2="46.91" xlink:href="#linear-gradient-5"/><linearGradient id="linear-gradient-13" x1="36.9" y1="38.3" x2="36.9" y2="70.43" xlink:href="#linear-gradient-7"/><linearGradient id="linear-gradient-14" x1="28.84" y1="56.67" x2="47.04" y2="56.67" xlink:href="#linear-gradient-9"/><linearGradient id="linear-gradient-15" x1="46.19" y1="22.48" x2="59.69" y2="22.48" gradientUnits="userSpaceOnUse"><stop offset="0" stop-color="#c6dd5f"/><stop offset="1" stop-color="#c6dd5f"/></linearGradient><linearGradient id="linear-gradient-16" x1="29.73" y1="53.64" x2="46.25" y2="53.64" xlink:href="#linear-gradient-15"/></defs><title>vegetables_salad</title><g id="Layer_2" data-name="Layer 2"><g id="Layer_3" data-name="Layer 3"><g id="_Group_" data-name="&lt;Group&gt;"><g id="_Group_2" data-name="&lt;Group&gt;"><path id="_Path_" data-name="&lt;Path&gt;" class="cls-1" d="M1.56,36.32s.66,8.39,5.2,24.57c4.22,15,59.45,18.62,66.48.23,1.44-3.75,3.9-11.75,5.37-25.28Z"/></g><g id="_Group_3" data-name="&lt;Group&gt;"><g id="_Group_4" data-name="&lt;Group&gt;"><g id="_Group_5" data-name="&lt;Group&gt;"><path id="_Path_2" data-name="&lt;Path&gt;" class="cls-2" d="M55.1,24.32S46,17.46,65.08,6.49c0,0,5.91,14.2-.07,18.12A8.36,8.36,0,0,1,55.1,24.32Z"/></g><g id="_Group_6" data-name="&lt;Group&gt;"><path id="_Path_3" data-name="&lt;Path&gt;" class="cls-3" d="M28.21,25.25c-5.37,2.54-11.07.61-12.79-3.89S17,8.93,19,3.19c0,0,12.2,5.28,13.69,12.91C34.1,23.4,28.21,25.25,28.21,25.25Z"/></g><g id="_Group_7" data-name="&lt;Group&gt;"><path id="_Path_4" data-name="&lt;Path&gt;" class="cls-4" d="M41.42.83c-5.91.47-10.1,6.66-9.32,12.49s6.58,10.82,12.47,9.6c5.71-1.18,8.91-7.56,7.85-13C51.45,4.93,46.83.4,41.42.83Z"/><path id="_Path_5" data-name="&lt;Path&gt;" class="cls-5" d="M41.48,2.16c-5.23.44-9,5.8-8.19,11s5.9,9.13,11,8c4.88-1.07,7.74-6.3,6.91-11C50.44,5.61,46.25,1.77,41.48,2.16Z"/><path id="_Path_6" data-name="&lt;Path&gt;" class="cls-6" d="M41.58,10c-.41.28-1.57-1.33-1.52-1.83s1-1.29,1.49-1.07S42,9.77,41.58,10Z"/><path id="_Path_7" data-name="&lt;Path&gt;" class="cls-6" d="M43.22,10.17c.47.28,1.59-1.51,1.44-2s-1-1.2-1.49-1S42.76,9.89,43.22,10.17Z"/></g><path id="_Path_8" data-name="&lt;Path&gt;" class="cls-7" d="M33.74,22.24c-3.43.61-10.06-10.79-9.6-11.82s4,1.94,4,1.94S25.54,1,26.56.08s5.05,8.29,5.05,8.29,1.25-5.57,2.13-4.69S37.33,21.61,33.74,22.24Z"/><path id="_Path_9" data-name="&lt;Path&gt;" class="cls-8" d="M.36,34.13s17.9-17.05,39.88-17.05c24.23,0,39.45,16.49,39.45,16.49S71,65.41,39.53,65.41C10.37,65.41.36,34.13.36,34.13Z"/><path id="_Path_10" data-name="&lt;Path&gt;" class="cls-9" d="M4.19,34.42s16.3-14.86,36-14.86c21.75,0,35.83,15,35.83,15a45.25,45.25,0,0,1-8.78,15.22C61.62,56.21,52.8,60.92,39.65,60.92c-11.73,0-20-4.27-25.68-10.43A50.28,50.28,0,0,1,4.19,34.42Z"/><g id="_Group_8" data-name="&lt;Group&gt;"><path id="_Path_11" data-name="&lt;Path&gt;" class="cls-4" d="M13.94,16.29C8.38,18.38,6.09,25.5,8.46,30.88s9.33,8.56,14.66,5.75C28.27,33.9,29.56,26.89,27,22,24.7,17.44,19,14.37,13.94,16.29Z"/><path id="_Path_12" data-name="&lt;Path&gt;" class="cls-10" d="M13.93,17.58c-4.82,2-6.59,8.3-4.38,12.93s8.33,7.26,12.93,4.7c4.4-2.45,5.45-8.51,3.23-12.78C23.6,18.37,18.41,15.71,13.93,17.58Z"/><path id="_Path_13" data-name="&lt;Path&gt;" class="cls-6" d="M16.14,25.72c-.25.44-2-.44-2.1-1S14.46,23,15,23,16.38,25.29,16.14,25.72Z"/><path id="_Path_14" data-name="&lt;Path&gt;" class="cls-6" d="M17.55,25.11c.49.13.69-1.9.4-2.37a1.15,1.15,0,0,0-1.58-.22C16.06,22.92,17.07,25,17.55,25.11Z"/><path id="_Path_15" data-name="&lt;Path&gt;" class="cls-6" d="M17.19,28c.49,0,.46,2.26.11,2.62s-1.21.09-1.47-.4S16.7,27.91,17.19,28Z"/><path id="_Path_16" data-name="&lt;Path&gt;" class="cls-6" d="M16.32,27.19c-.19-.51-2.32,0-2.51.5s.06,1.39.56,1.5S16.51,27.7,16.32,27.19Z"/><path id="_Path_17" data-name="&lt;Path&gt;" class="cls-6" d="M18.47,27.44c-.32.38,1.26,1.69,1.75,1.7s.56-1,.38-1.52S18.78,27.07,18.47,27.44Z"/><path id="_Path_18" data-name="&lt;Path&gt;" class="cls-6" d="M18.47,26.15c-.23-.49,1.44-1.55,1.92-1.35s.42,1,.16,1.47S18.7,26.64,18.47,26.15Z"/></g><g id="_Group_9" data-name="&lt;Group&gt;"><path id="_Path_19" data-name="&lt;Path&gt;" class="cls-11" d="M59.34,33s1.37-20.51,1-23c-.24-1.78-5-4.92-6.06-4.69S44,25.81,44,25.81,47.65,38.76,59.34,33Z"/></g><path id="_Path_20" data-name="&lt;Path&gt;" class="cls-12" d="M52.79,30.85l-1,.66,1.92-15.37L41.12,14.9,34.39,33.7,52.17,38C52.4,35.61,52.59,33.23,52.79,30.85Z"/><path id="_Path_21" data-name="&lt;Path&gt;" class="cls-13" d="M57,16.82l-2.61,12.9-1.6,1.1a15.63,15.63,0,0,1-2.21,6.69.35.35,0,0,1,0,.08l11.82,2.84L66.1,19.7Z"/><g id="_Group_10" data-name="&lt;Group&gt;"><path id="_Path_22" data-name="&lt;Path&gt;" class="cls-14" d="M15.24,45.8S-3.78,48.39.68,22.15c0,0,12.69,5.24,16,22.75Z"/></g><g id="_Group_11" data-name="&lt;Group&gt;"><path id="_Path_23" data-name="&lt;Path&gt;" class="cls-15" d="M58.44,43.23S67.34,28,79.53,22.51c0,0,6,24.25-16.86,23.35Z"/></g><path id="_Path_24" data-name="&lt;Path&gt;" class="cls-16" d="M34.81,14.94c-.12-1.61,3.32-3.9,9.33-3.74,5.62.14,10,4.09,9.6,4.94-.9,1.7-8.42,1.47-7.68,4,.68,2.33,12.21,5.9,16.06,3.43,2.95-1.9-4.68-4.56-5.08-6.73s12.21-3.15,14.68,2.61c1.51,3.51-4.26,16.91-9.89,25.34S34.92,16.54,34.81,14.94Z"/><path id="_Path_25" data-name="&lt;Path&gt;" class="cls-12" d="M34.6,14.67a19.2,19.2,0,0,0,8.16,3.68l-.71,8.18S34.5,20,34.6,14.67Z"/><path id="_Path_26" data-name="&lt;Path&gt;" class="cls-17" d="M47.86,35.29,58.54,43,62.61,23.1a1.55,1.55,0,0,1-.49.45c-3.81,2.15-15.24-1.4-16.06-3.43L45.48,32C46.26,33.1,47.06,34.21,47.86,35.29Z"/><g id="_Group_12" data-name="&lt;Group&gt;"><path id="_Path_27" data-name="&lt;Path&gt;" class="cls-18" d="M45.38,33.35,35.68,9.69s-14.08,6.36-9.26,18.5C30.17,37.63,45.38,33.35,45.38,33.35Z"/><path id="_Path_28" data-name="&lt;Path&gt;" class="cls-19" d="M38.24,15.94a6.94,6.94,0,0,0-4.68,6.47,7,7,0,0,0,6.53,6.64,7.65,7.65,0,0,0,3.48-.6Z"/></g><g id="_Group_13" data-name="&lt;Group&gt;"><path id="_Path_29" data-name="&lt;Path&gt;" class="cls-20" d="M25.28,45s-4.34-19.1-4.53-21.58c-.14-1.78,3.16-6.32,4.26-6.32s13.47,18,13.47,18S37.93,48.13,25.28,45Z"/></g><g id="_Group_14" data-name="&lt;Group&gt;"><g id="_Group_15" data-name="&lt;Group&gt;"><path id="_Path_30" data-name="&lt;Path&gt;" class="cls-4" d="M44.71,27.41c-5.83-1.09-11.49,3.8-12.26,9.63S36,49.2,42,49.56c5.82.35,10.57-5,11-10.5C53.32,34,50.05,28.41,44.71,27.41Z"/><path id="_Path_31" data-name="&lt;Path&gt;" class="cls-21" d="M44.44,28.87c-5.15-.95-10.13,3.23-10.87,8.32-.76,5.27,3.12,10.82,8.5,11.15,5.19.31,9.47-4.39,9.76-9.36C52.08,34.53,49.14,29.74,44.44,28.87Z"/><path id="_Path_32" data-name="&lt;Path&gt;" class="cls-6" d="M42.56,39.59C43,39.34,44.21,41,44,41.53s-1.11.95-1.51.64S42.12,39.83,42.56,39.59Z"/><path id="_Path_33" data-name="&lt;Path&gt;" class="cls-6" d="M41.63,39.25c-.35-.36-1.88,1.07-1.87,1.63S40.52,42.15,41,42,42,39.61,41.63,39.25Z"/><path id="_Path_34" data-name="&lt;Path&gt;" class="cls-6" d="M43.15,37c-.41-.29.57-1.75,1.05-1.88s1.38.5,1.34,1S43.54,37.26,43.15,37Z"/><path id="_Path_35" data-name="&lt;Path&gt;" class="cls-6" d="M43.4,38.16c0,.54,1.83,1.12,2.25.81s.77-1.22.41-1.58S43.4,37.9,43.4,38.16Z"/><path id="_Path_36" data-name="&lt;Path&gt;" class="cls-6" d="M41.63,36.73c.47-.16-.1-1.93-.53-2.19s-1.66-.15-1.79.39S41.17,36.88,41.63,36.73Z"/><path id="_Path_37" data-name="&lt;Path&gt;" class="cls-6" d="M40.79,37.82c-.06.54-2,.73-2.27.31s-.63-1.73-.18-2S40.84,37.28,40.79,37.82Z"/></g></g><path id="_Path_38" data-name="&lt;Path&gt;" class="cls-22" d="M40.92,59.2s6.76-26.19,7.73-27,6.45-.14,7.28.13,5.5,11.41,3,20.62S40.92,59.2,40.92,59.2Z"/><path id="_Path_39" data-name="&lt;Path&gt;" class="cls-7" d="M59.1,47.79c-2.1-.94.07-15.07.94-15.71S62.2,36,62.2,36s2.55-11.37,3.59-11.6,1,6,1,6,4.81-9,7.18-9.66c1.76-.53-1.43,6.94-3.75,10.27,0,0,5-1.73,3.63.1a65,65,0,0,1-6,6.85s3.41-1.06,3.92.21S61.07,48.67,59.1,47.79Z"/><g id="_Group_16" data-name="&lt;Group&gt;"><path id="_Path_40" data-name="&lt;Path&gt;" class="cls-18" d="M68.25,48.63c-2.2-7.91-12.11-11.86-12.11-11.86L48.4,61l.45.16A35.89,35.89,0,0,0,68.25,48.63Z"/><path id="_Path_41" data-name="&lt;Path&gt;" class="cls-19" d="M49.71,55.94A7.89,7.89,0,0,0,52.77,57,6.75,6.75,0,0,0,54,43.59Z"/></g><path id="_Path_42" data-name="&lt;Path&gt;" class="cls-12" d="M38.62,42.08V58.32S23.58,54,25.09,48.1,38.62,42.08,38.62,42.08Z"/><g id="_Group_17" data-name="&lt;Group&gt;"><path id="_Path_43" data-name="&lt;Path&gt;" class="cls-13" d="M34.56,48.85v8.87S50.49,57.27,50,52.91,34.56,48.85,34.56,48.85Z"/><path id="_Path_44" data-name="&lt;Path&gt;" class="cls-23" d="M55,49.3c-4.21-3.61-17.74-4.06-20.29-1-2.06,2.41,12.48,1,12.33,4.36-.11,2.42-16.66,2.52-18.2-1.51-1.2-3.15,12.33-8,9.33-9.92S18.77,43.44,18,46.74a24.57,24.57,0,0,0-.15,7.5,33.2,33.2,0,0,0,21.8,8A36.3,36.3,0,0,0,56,58.55C56.21,56.22,56.44,50.53,55,49.3Z"/><path id="_Path_45" data-name="&lt;Path&gt;" class="cls-24" d="M46.38,61.67,47,52.61c-.11,2.42-16.66,2.52-18.2-1.51L30,60.84a33.75,33.75,0,0,0,9.72,1.39A39.6,39.6,0,0,0,46.38,61.67Z"/></g><path id="_Path_46" data-name="&lt;Path&gt;" class="cls-7" d="M25.75,51.67c-.73-.51-1.7,1.09-2.5,1.78.16-2.24.83-5.86-.11-6.32-1.15-.56-2.88,1.25-2.88,1.25s.77-8-.59-8.25-2.57,1.95-2.57,1.95-1.44-9.45-2.59-9.87-1.64,2.15-1.64,2.15-6-12.25-6.79-10.6,3.84,13,3.84,13-3.38-3.25-3.64-2.22c-.3,1.2,5.35,8.28,5.35,8.28s-3.38-1.91-3.53-1c-.26,1.55,5.26,6.27,5.26,6.27a9.89,9.89,0,0,0-2-.76,41.26,41.26,0,0,0,9.36,9h0a.41.41,0,0,1,.11.07l.24.16h0A33.71,33.71,0,0,0,25.22,59C25.74,56.82,26.51,52.2,25.75,51.67Z"/></g><path id="_Path_47" data-name="&lt;Path&gt;" class="cls-25" d="M59.69,24.2l-.08,0c-4.52.33-11.75-2-13.3-3.69l-.12,0C46.24,20.62,49.88,25.78,59.69,24.2Z"/><path id="_Path_48" data-name="&lt;Path&gt;" class="cls-26" d="M29.73,52.19c.75.75,5.89,5.3,16.52,1.25h0C43.21,54.81,33,54.66,29.73,52.19Z"/></g></g></g></g></svg>