<svg xmlns="http://www.w3.org/2000/svg" xmlns:xlink="http://www.w3.org/1999/xlink" viewBox="0 0 75.119 81.648"><defs><style>.cls-1{isolation:isolate;}.cls-10,.cls-13,.cls-2,.cls-23,.cls-25,.cls-26{mix-blend-mode:multiply;}.cls-22,.cls-3{fill:#ffcf6d;}.cls-4{fill:#f5b3a5;}.cls-5{fill:#d46348;}.cls-6{fill:#4f8d33;}.cls-7{fill:url(#linear-gradient);}.cls-8{fill:url(#linear-gradient-2);}.cls-9{fill:url(#linear-gradient-3);}.cls-10{fill:#dde7bb;}.cls-11,.cls-13{fill:#c34231;}.cls-12{fill:#e38d84;}.cls-12,.cls-26{opacity:0.5;}.cls-13,.cls-22{opacity:0.7;}.cls-14{fill:#4f6e33;}.cls-15{fill:#afce7c;}.cls-16{fill:#deedb9;}.cls-17{fill:#fff;}.cls-18{fill:url(#linear-gradient-4);}.cls-19{fill:#ffd682;}.cls-20{fill:#f9bc5b;}.cls-21{fill:url(#linear-gradient-5);}.cls-23,.cls-25{opacity:0.6;}.cls-24,.cls-25,.cls-26{fill:#f3cf8f;}.cls-27{fill:#ffe0a1;}</style><linearGradient id="linear-gradient" x1="474.225" y1="592.359" x2="461.466" y2="557.892" gradientTransform="translate(510.04 -499.663) rotate(80.099)" gradientUnits="userSpaceOnUse"><stop offset="0" stop-color="#8dbb3f"/><stop offset="1" stop-color="#699334"/></linearGradient><linearGradient id="linear-gradient-2" x1="-5496.127" y1="5090.505" x2="-5451.502" y2="5070.116" gradientTransform="translate(-1197.85 7382.607) rotate(142.458)" xlink:href="#linear-gradient"/><linearGradient id="linear-gradient-3" x1="73.247" y1="-1247.4" x2="60.362" y2="-1274.472" gradientTransform="matrix(0.999, 0.037, -0.027, 0.735, -66.458, 951.879)" gradientUnits="userSpaceOnUse"><stop offset="0" stop-color="#fff48b"/><stop offset="0.946" stop-color="#dbe660"/><stop offset="1" stop-color="#d9e55d"/></linearGradient><linearGradient id="linear-gradient-4" x1="69.035" y1="-1203.004" x2="56.149" y2="-1230.076" xlink:href="#linear-gradient-3"/><linearGradient id="linear-gradient-5" x1="32.291" y1="35.196" x2="74.133" y2="69.823" gradientUnits="userSpaceOnUse"><stop offset="0.025" stop-color="#f9bc5b"/><stop offset="1" stop-color="#ce7421"/></linearGradient></defs><title>sandwich</title><g class="cls-1"><g id="Layer_2" data-name="Layer 2"><g id="done" class="cls-2"><g id="_Group_" data-name="&lt;Group&gt;"><g id="_Group_2" data-name="&lt;Group&gt;"><g id="_Group_3" data-name="&lt;Group&gt;"><path id="_Path_" data-name="&lt;Path&gt;" class="cls-3" d="M54.341,6.4,42.99,2.645S12.114,34.1,2.592,66.273l12.985,9.451L42.289,39.877Z"/><g id="_Group_4" data-name="&lt;Group&gt;"><path class="cls-4" d="M12.555,67.414c-2.436,1.551-6.843,3.155-9.388,1.323C.144,66.562.253,62.943,1.885,59.923c2.427-4.49,8.456-5.828,12.951-7.133,8.269-2.4,14.476-6.983,17.71-15.2,1.76-4.473,1.532-8.937,1.023-13.6-1.145-10.48,2.408-17.708,9.069-20.937,2.506-1.215,6.405-2.09,8.61.17,2.879,2.952,2.612,8.545,2.579,12.3L46.743,42.263Z"/></g><g id="_Group_5" data-name="&lt;Group&gt;"><path id="_Path_2" data-name="&lt;Path&gt;" class="cls-5" d="M12.169,66.753c-3.213,1.879-8.191,3.626-10-.98-1.283-3.261.326-6.354,3.058-8.364,3.546-2.609,8.07-3.165,12.121-4.628,6.781-2.451,12.4-7,15.379-13.658,3.883-8.679-.492-17.874,2.606-26.622a14.82,14.82,0,0,1,9.6-9.515c8.22-2.31,8.19,7.189,8.128,12.531a.765.765,0,0,0,1.53,0c.049-4.279.491-10.839-3.7-13.542-3.419-2.2-8.269-.191-11.184,1.959A18.041,18.041,0,0,0,32.91,15.952c-1.106,7.2,1.609,14.389-1.1,21.431-2.609,6.779-8.157,11.483-14.87,13.922C12.115,53.058,6.249,53.643,2.59,57.642c-2.378,2.6-3.608,6.871-1.533,9.994C3.888,71.9,9.3,70.2,12.941,68.074a.765.765,0,0,0-.772-1.321Z"/></g><path id="_Path_3" data-name="&lt;Path&gt;" class="cls-6" d="M12.432,59.819l-.28-2.89s-7.788-1.1-7.356.951c.261,1.243,2.768,1.76,5.083,2.728-2.629.878-5.2,1.988-4.682,2.854C6.2,65.151,15.385,64.47,15.385,64.47l-.443-5.325S13.869,59.408,12.432,59.819Z"/><path id="_Path_4" data-name="&lt;Path&gt;" class="cls-7" d="M6.939,70.231c-1.093,5.3,8.094,5.823,10.5,5.354,6.5-1.264,9.64-5.538,16.038-7.138C48.634,64.66,66.913,59.2,68.9,37.189a2.239,2.239,0,0,0-1.791-2.5c-10.95-1.737-25.482-2.45-36.315,3.063-7.71,3.923-13.482,11.971-17.931,20.254-1.943,3.615-4.578,7.4-5.778,11.64C7.025,69.849,6.978,70.044,6.939,70.231Z"/><path id="_Path_5" data-name="&lt;Path&gt;" class="cls-6" d="M20.944,46.73s-10.812-5.222-10.287-7.86c.35-1.764,8.273.56,8.273.56s-3.156-5.121-2.529-6.844C17,30.95,20.12,33.628,20.12,33.628s-3.112-7.5-2.083-8.927S34.376,35.364,30.81,44C28.128,50.5,20.944,46.73,20.944,46.73Z"/><path id="_Path_6" data-name="&lt;Path&gt;" class="cls-6" d="M43.89,10.549S42.673.926,44.433.048s4.8,10.458,4.8,10.458Z"/><path id="_Path_7" data-name="&lt;Path&gt;" class="cls-6" d="M40.8,12.2S38.289,2.784,39.239.914,44.967,8.93,44.967,8.93Z"/><path id="_Path_8" data-name="&lt;Path&gt;" class="cls-8" d="M41.421,63.572c4.5-18.8,24.747-27.394,23.154-48.106-.851-11.062-15.2-22.268-25,1.047-3.125-4.464-8.273-6.3-9.934-4.459-4.787,5.318-3.3,22.278-.893,26.781.022.041,1.018,3.534,1.041,3.571C31.236,57.276,41.421,63.572,41.421,63.572Z"/><path id="_Path_9" data-name="&lt;Path&gt;" class="cls-9" d="M42.267,14.282c-7.417,0-27.222,6.873-16.5,27.382S49.685,14.282,42.267,14.282Z"/><path id="_Path_10" data-name="&lt;Path&gt;" class="cls-10" d="M35.613,20.59S20.154,20.521,26.532,34.8C30.785,44.324,40.726,27.114,35.613,20.59Z"/><path id="_Path_11" data-name="&lt;Path&gt;" class="cls-11" d="M32.891,15.991c-7.279,7.937-6.166,22.189,2.38,27.486,7.423,4.6,18.108.994,23.374-6.06,4.731-6.337,6-16.674,0-22.94C51.934,7.462,39.365,8.931,32.891,15.991Z"/><path id="_Path_12" data-name="&lt;Path&gt;" class="cls-12" d="M39.053,16.211c-.43-.151-1.133.424-1.136,1.041a.851.851,0,0,0,.534.826c.411.107.831-.295.968-.679A.977.977,0,0,0,39.053,16.211Z"/><path id="_Path_13" data-name="&lt;Path&gt;" class="cls-12" d="M34.7,19.964c-.662-.172-1.468.584-1.5,1.368a1.236,1.236,0,0,0,.748,1.222,1.287,1.287,0,0,0,1.456-.835A1.364,1.364,0,0,0,34.7,19.964Z"/><path id="_Path_14" data-name="&lt;Path&gt;" class="cls-12" d="M46.377,20.144c-.667-.187-1.5.562-1.542,1.355a1.249,1.249,0,0,0,.733,1.252,1.3,1.3,0,0,0,1.491-.815A1.382,1.382,0,0,0,46.377,20.144Z"/><path id="_Compound_Path_" data-name="&lt;Compound Path&gt;" class="cls-13" d="M58.645,14.477c-6.711-7.015-19.28-5.546-25.754,1.514-7.279,7.937-6.166,22.189,2.38,27.486,7.423,4.6,18.108.994,23.374-6.06C63.376,31.08,64.641,20.743,58.645,14.477ZM57.317,36.446C52.685,42.712,43.531,45.214,37,41.313c-7.861-4.7-9.337-17.139-2.863-24.149,5.708-6.18,16.547-7,22.557-.74C61.931,21.879,61.57,30.694,57.317,36.446Z"/><g id="_Group_6" data-name="&lt;Group&gt;"><path id="_Path_15" data-name="&lt;Path&gt;" class="cls-14" d="M33.465,28.159c-3.837,6.057-3.446,13.241.872,16.046a7.154,7.154,0,0,0,4.136,1.117A69.737,69.737,0,0,0,44.67,36c2.1-3.479,4.224-6.944,6.264-10.46-.586-1.355-.313-2.084-1.595-2.751C44.794,20.428,37.3,22.1,33.465,28.159Z"/><path id="_Path_16" data-name="&lt;Path&gt;" class="cls-15" d="M34.666,29c-3.558,5.617-3.122,12.359.916,15.287.857-1.444,1.876-2.823,2.828-4.117,1.661-2.259,3.492-4.4,5.327-6.516,2.039-2.355,4.163-4.634,6.213-6.98.349-.4.678-.825,1.008-1.252a4.848,4.848,0,0,0-1.871-1.764C44.528,21.787,38.312,23.242,34.666,29Z"/><path id="_Path_17" data-name="&lt;Path&gt;" class="cls-16" d="M35.7,29.518c-2.7,4.22-2.478,10.674.9,13.166.591-.868,1.21-1.71,1.8-2.517,1.661-2.259,3.492-4.4,5.327-6.516,1.976-2.281,4.029-4.493,6.019-6.761a5.8,5.8,0,0,0-1.685-1.631C45.66,23.783,38.815,24.666,35.7,29.518Z"/></g><path id="_Compound_Path_2" data-name="&lt;Compound Path&gt;" class="cls-17" d="M55.515,17.68c-4.9-3.864-13.191-2.086-16.546,3.625C35.977,26.4,37.462,33.671,42.436,36.59c5.736,3.367,13.733-.455,16.073-6.461C60.1,26.054,59.224,20.605,55.515,17.68ZM57.13,30.059a9.331,9.331,0,0,1-12.841,4.328,9.213,9.213,0,0,1-3.319-12.7c3-4.633,10.028-4.9,13.851-1.442A8.939,8.939,0,0,1,57.13,30.059Z"/></g><g id="_Group_7" data-name="&lt;Group&gt;"><path id="_Path_18" data-name="&lt;Path&gt;" class="cls-11" d="M16.662,39.978c-7.849,7.2-8.178,21.485-.406,27.581,6.751,5.293,17.479,2.735,23.288-3.777,5.219-5.85,7.469-16.014,2.268-22.828C35.991,33.327,23.645,33.577,16.662,39.978Z"/><path id="_Compound_Path_3" data-name="&lt;Compound Path&gt;" class="cls-13" d="M41.812,40.954c-5.821-7.627-18.167-7.377-25.15-.976-7.849,7.2-8.178,21.485-.406,27.581,6.751,5.293,17.479,2.735,23.288-3.777C44.763,57.932,47.013,47.768,41.812,40.954ZM38.351,62.688c-5.116,5.789-14.249,7.4-20.2,2.884-7.166-5.433-7.369-17.955-.392-24.306,6.152-5.6,16.755-5.373,21.969,1.438C44.27,48.637,43.048,57.374,38.351,62.688Z"/><path id="_Path_19" data-name="&lt;Path&gt;" class="cls-12" d="M16.04,57.981c-.43-.152-1.133.423-1.135,1.041a.848.848,0,0,0,.533.825c.412.108.831-.3.968-.678A.976.976,0,0,0,16.04,57.981Z"/><path id="_Path_20" data-name="&lt;Path&gt;" class="cls-12" d="M29.677,44.715c-.522-.231-1.287.283-1.416.924a1.032,1.032,0,0,0,.452,1.107,1.074,1.074,0,0,0,1.311-.491A1.137,1.137,0,0,0,29.677,44.715Z"/><path id="_Path_21" data-name="&lt;Path&gt;" class="cls-18" d="M36.857,46.745c-7.417,0-27.223,6.873-16.5,27.382S44.274,46.745,36.857,46.745Z"/><path id="_Path_22" data-name="&lt;Path&gt;" class="cls-10" d="M30.2,53.053s-15.459-.069-9.081,14.211C25.374,76.787,35.315,59.577,30.2,53.053Z"/><path id="_Compound_Path_4" data-name="&lt;Compound Path&gt;" class="cls-17" d="M40.279,42.235c-4.574-4.424-14.035-2.61-17.6,3.462-2.758,4.7-2.042,12.016,2.934,15.119,5.234,3.264,12.284.055,15.317-4.718C43.548,51.974,43.821,45.661,40.279,42.235Zm-.459,13.2a9.077,9.077,0,0,1-12.382,3.539,9.006,9.006,0,0,1-2.886-12.263,9.223,9.223,0,0,1,13.563-2.02A8.948,8.948,0,0,1,39.82,55.432Z"/></g><path id="_Path_23" data-name="&lt;Path&gt;" class="cls-19" d="M68.884,13.269l-9.59-4.852S33.54,38.5,15.577,75.724l9.288,5.528Z"/><g id="_Group_8" data-name="&lt;Group&gt;"><path id="_Path_24" data-name="&lt;Path&gt;" class="cls-20" d="M25.273,78.944l-8.953-4.73c-.248.5-.5,1-.743,1.51l9.288,5.528.648-1Z"/><path id="_Path_25" data-name="&lt;Path&gt;" class="cls-20" d="M59.294,8.417s-.475.556-1.319,1.581l8.842,4.265,1.906-.744.161-.25Z"/></g><path id="_Path_26" data-name="&lt;Path&gt;" class="cls-21" d="M24.865,81.252c-2.147-3.577,40.469-67.816,43.385-68.26,4.462-.68,8.168,52.716,6.432,55.03S26.6,84.144,24.865,81.252Z"/><path id="_Path_27" data-name="&lt;Path&gt;" class="cls-12" d="M17.411,50.478c-.43-.151-1.133.424-1.136,1.041a.849.849,0,0,0,.534.825c.411.108.831-.294.968-.678A.978.978,0,0,0,17.411,50.478Z"/><path id="_Path_28" data-name="&lt;Path&gt;" class="cls-12" d="M26.933,38.864c-.43-.152-1.133.423-1.135,1.041a.85.85,0,0,0,.533.825c.412.108.831-.295.968-.678A.976.976,0,0,0,26.933,38.864Z"/><path id="_Path_29" data-name="&lt;Path&gt;" class="cls-12" d="M17.46,44.852c-.662-.171-1.467.585-1.5,1.368a1.236,1.236,0,0,0,.749,1.222,1.286,1.286,0,0,0,1.455-.835A1.364,1.364,0,0,0,17.46,44.852Z"/><path id="_Path_30" data-name="&lt;Path&gt;" class="cls-22" d="M66.9,14.263c-.043.021-.088.05-.131.074C59.4,22.721,29.482,67.976,25.283,78.985c5.64.822,47.041-10.322,47.752-12.512C74.851,60.886,70.124,16.539,66.9,14.263Z"/><g id="_Group_9" data-name="&lt;Group&gt;" class="cls-23"><path id="_Path_31" data-name="&lt;Path&gt;" class="cls-24" d="M37.957,68.463a1.3,1.3,0,0,1,.961-.233,1.335,1.335,0,0,1,.85.534,1.342,1.342,0,0,1-.269,1.851,1.306,1.306,0,0,1-.961.233,1.336,1.336,0,0,1-.85-.534,1.375,1.375,0,0,1-.24-.988,1.356,1.356,0,0,1,.509-.863Z"/></g><g id="_Group_10" data-name="&lt;Group&gt;" class="cls-23"><path id="_Path_32" data-name="&lt;Path&gt;" class="cls-24" d="M43.317,70.439a1.624,1.624,0,0,1,1.2-.291,1.663,1.663,0,0,1,1.061.666,1.7,1.7,0,0,1-.335,2.311,1.626,1.626,0,0,1-1.2.291,1.664,1.664,0,0,1-1.06-.666,1.7,1.7,0,0,1,.335-2.311Z"/></g><g id="_Group_11" data-name="&lt;Group&gt;" class="cls-23"><path id="_Path_33" data-name="&lt;Path&gt;" class="cls-24" d="M42.705,66.2a.855.855,0,0,1,1.2.2.9.9,0,0,1-.178,1.221.854.854,0,0,1-1.194-.2.9.9,0,0,1,.177-1.221Z"/></g><g id="_Group_12" data-name="&lt;Group&gt;" class="cls-23"><path id="_Path_34" data-name="&lt;Path&gt;" class="cls-24" d="M66.334,49.447a1.312,1.312,0,0,1,1.009-.394,1.542,1.542,0,0,1,1.029.519,1.778,1.778,0,0,1,.447,1.128,1.562,1.562,0,0,1-.4,1.077,1.318,1.318,0,0,1-1.009.395,1.547,1.547,0,0,1-1.03-.519,1.784,1.784,0,0,1-.447-1.129,1.559,1.559,0,0,1,.4-1.077Z"/></g><g id="_Group_13" data-name="&lt;Group&gt;" class="cls-23"><path id="_Path_35" data-name="&lt;Path&gt;" class="cls-24" d="M63.375,52.773a.935.935,0,0,1,.719-.282,1.1,1.1,0,0,1,.733.37,1.2,1.2,0,0,1,.036,1.572.939.939,0,0,1-.719.281,1.1,1.1,0,0,1-.734-.37,1.2,1.2,0,0,1-.035-1.571Z"/></g><path id="_Path_36" data-name="&lt;Path&gt;" class="cls-25" d="M67.38,55.822a.777.777,0,0,1,1.143.07.943.943,0,0,1,.028,1.237.778.778,0,0,1-1.144-.069.946.946,0,0,1-.027-1.238Z"/><path id="_Path_37" data-name="&lt;Path&gt;" class="cls-26" d="M58.891,19.383a1.406,1.406,0,0,1-.9-.526,1.361,1.361,0,0,1,.263-1.9,1.361,1.361,0,0,1,1.9.263,1.359,1.359,0,0,1-.263,1.9,1.416,1.416,0,0,1-1.006.263Z"/><path id="_Path_38" data-name="&lt;Path&gt;" class="cls-26" d="M54.75,21.23a.885.885,0,1,1,1-.756.894.894,0,0,1-1,.756Z"/></g><path id="_Path_39" data-name="&lt;Path&gt;" class="cls-27" d="M27.689,73.743S42.628,44.176,63.377,18.759C63.377,18.759,33.291,66.17,27.689,73.743Z"/></g></g></g></g></svg>