<svg xmlns="http://www.w3.org/2000/svg" xmlns:xlink="http://www.w3.org/1999/xlink" viewBox="0 0 77.1 78.77"><defs><style>.cls-1{isolation:isolate;}.cls-2{fill:#ff6727;}.cls-3{fill:url(#linear-gradient);}.cls-4{fill:url(#linear-gradient-2);}.cls-5{fill:#3b2731;}.cls-6{fill:#c5f0ff;}.cls-7{fill:url(#linear-gradient-3);}.cls-8{fill:url(#linear-gradient-4);}.cls-9{fill:url(#linear-gradient-5);}.cls-10{fill:url(#linear-gradient-6);}.cls-11{fill:#ffdebe;opacity:0.5;}.cls-12{fill:#e04c1c;}.cls-13,.cls-20{fill:#972614;opacity:0.3;}.cls-14{fill:url(#linear-gradient-7);}.cls-15{fill:url(#linear-gradient-8);}.cls-16{fill:url(#linear-gradient-9);}.cls-17{fill:url(#linear-gradient-10);}.cls-18{fill:url(#linear-gradient-11);}.cls-19{fill:url(#linear-gradient-12);}.cls-20{mix-blend-mode:multiply;}</style><linearGradient id="linear-gradient" x1="-3712.1" y1="-2905.7" x2="-3756.22" y2="-2932.33" gradientTransform="translate(2000.55 4322.29) rotate(27.35)" gradientUnits="userSpaceOnUse"><stop offset="0" stop-color="#ff6938"/><stop offset="1" stop-color="#ffdebe"/></linearGradient><linearGradient id="linear-gradient-2" x1="54.56" y1="30.24" x2="52.89" y2="0.69" gradientTransform="translate(-23.84)" gradientUnits="userSpaceOnUse"><stop offset="0" stop-color="#ffa47b"/><stop offset="1" stop-color="#ffdebe"/></linearGradient><linearGradient id="linear-gradient-3" x1="40.2" y1="46.66" x2="19.74" y2="15.54" gradientTransform="translate(-23.84)" gradientUnits="userSpaceOnUse"><stop offset="0" stop-color="#ff542a"/><stop offset="1" stop-color="#ffb18d"/></linearGradient><linearGradient id="linear-gradient-4" x1="40.84" y1="46.24" x2="20.38" y2="15.12" xlink:href="#linear-gradient-3"/><linearGradient id="linear-gradient-5" x1="47.82" y1="41.66" x2="27.36" y2="10.53" xlink:href="#linear-gradient-3"/><linearGradient id="linear-gradient-6" x1="58.21" y1="34.82" x2="37.75" y2="3.7" xlink:href="#linear-gradient-3"/><linearGradient id="linear-gradient-7" x1="379.42" y1="-1336.55" x2="356.31" y2="-1378.41" gradientTransform="matrix(0.99, 0.13, 0.13, -0.99, -127.76, -1345.68)" xlink:href="#linear-gradient"/><linearGradient id="linear-gradient-8" x1="105.23" y1="36.56" x2="61.96" y2="54.38" gradientTransform="translate(-23.84)" gradientUnits="userSpaceOnUse"><stop offset="0" stop-color="#ff5526"/><stop offset="1" stop-color="#ffb583"/></linearGradient><linearGradient id="linear-gradient-9" x1="109.76" y1="47.56" x2="66.49" y2="65.39" xlink:href="#linear-gradient-8"/><linearGradient id="linear-gradient-10" x1="113.18" y1="55.88" x2="69.92" y2="73.7" xlink:href="#linear-gradient-8"/><linearGradient id="linear-gradient-11" x1="113.8" y1="57.38" x2="70.54" y2="75.21" xlink:href="#linear-gradient-8"/><linearGradient id="linear-gradient-12" x1="86.76" y1="51.01" x2="62.38" y2="31.81" xlink:href="#linear-gradient-2"/></defs><title>shrimps</title><g class="cls-1"><g id="Layer_2" data-name="Layer 2"><g id="Layer_3" data-name="Layer 3"><g id="_Group_" data-name="&lt;Group&gt;"><g id="_Group_2" data-name="&lt;Group&gt;"><g id="_Group_3" data-name="&lt;Group&gt;"><g id="_Group_4" data-name="&lt;Group&gt;"><path id="_Path_" data-name="&lt;Path&gt;" class="cls-2" d="M16.67,27.24s11.8,1.29,11.26,2.33-8.36,1.36-8.36,1.36,3.69,3.44,2.47,4.12-7.5-4.54-7.5-4.54Z"/><path id="_Path_2" data-name="&lt;Path&gt;" class="cls-3" d="M25.28,46.33c-4.35-2.86-12.39-9.18-9.54-15.19,4.84-10.19,14.38-2.41,21.12-12a17.72,17.72,0,0,0,2.71-7.92c2.13-.66,6.31-2,6.38-2.47.1-.61-5.3.1-5.3.1S51.92,4.34,51.41,3.64,41.64,6,41.64,6,53.63.2,52.41,0,39.66,4.78,39.66,4.78A97.68,97.68,0,0,1,20,9.9C8,11.83,2.55,17.31.54,24.15c-1.89,6.47.26,19.15,21.56,26A12.08,12.08,0,0,1,25.28,46.33Z"/><path id="_Path_3" data-name="&lt;Path&gt;" class="cls-4" d="M24.07,9.16C22.06,16.56,27,21,31.17,20c3.11-.72,6-8.09,3.78-13.62A106.47,106.47,0,0,1,24.07,9.16Z"/><path id="_Path_4" data-name="&lt;Path&gt;" class="cls-5" d="M29.77,10a2.53,2.53,0,1,1-1.09-3.4A2.53,2.53,0,0,1,29.77,10Z"/><path id="_Path_5" data-name="&lt;Path&gt;" class="cls-6" d="M26.72,9.33a.51.51,0,1,1-.22-.69A.51.51,0,0,1,26.72,9.33Z"/><path id="_Path_6" data-name="&lt;Path&gt;" class="cls-6" d="M28.59,8.35A1,1,0,1,1,28.17,7,1,1,0,0,1,28.59,8.35Z"/><path id="_Path_7" data-name="&lt;Path&gt;" class="cls-2" d="M36.48,59.15c2.63-1.7-5.54-7.68-5.54-7.68s7.78,2.93,7.91-.28-11-3.28-11-3.28a43.84,43.84,0,0,1-4-2.56A7.61,7.61,0,0,1,20,49.43c1.82.66,3.79,1.28,5.93,1.84C25.9,51.27,33.85,60.85,36.48,59.15Z"/><path id="_Path_8" data-name="&lt;Path&gt;" class="cls-7" d="M12.39,46a15.36,15.36,0,0,0,6.23-5.11,18.1,18.1,0,0,1-2-2.66,18.35,18.35,0,0,1-8.9,4.53A33.1,33.1,0,0,0,12.39,46Z"/><path id="_Path_9" data-name="&lt;Path&gt;" class="cls-8" d="M.12,26.23a15.86,15.86,0,0,0,.7,6.89c7.41,3.38,12.36,2.43,14.42,1.7a6.18,6.18,0,0,1,.11-2.6C9.22,32.5,3.7,29.14.12,26.23Z"/><path id="_Path_10" data-name="&lt;Path&gt;" class="cls-9" d="M17,29a8.92,8.92,0,0,1,1.81-1.86A18.33,18.33,0,0,1,8.74,13.66a18.54,18.54,0,0,0-4.8,4C7.5,24.24,14,27.69,17,29Z"/><path id="_Path_11" data-name="&lt;Path&gt;" class="cls-10" d="M23.38,25.26c.92-.18,1.86-.3,2.82-.44A18.75,18.75,0,0,1,22.63,9.44c-.87.16-1.76.31-2.68.46s-2,.35-2.88.56A26.83,26.83,0,0,0,23.38,25.26Z"/><path id="_Path_12" data-name="&lt;Path&gt;" class="cls-11" d="M20.15,13.84c-.36-2.69-9.7-.59-8.83,2.81S20.63,17.37,20.15,13.84Z"/><path id="_Path_13" data-name="&lt;Path&gt;" class="cls-11" d="M8.54,19.16c-3-1.36-7,5.24-4.39,6.91S11.2,20.36,8.54,19.16Z"/><path id="_Path_14" data-name="&lt;Path&gt;" class="cls-11" d="M3.94,31.87c-1.7.86-.86,5.46,1.82,5S6.82,30.41,3.94,31.87Z"/></g><path id="_Path_15" data-name="&lt;Path&gt;" class="cls-12" d="M27.78,53.39c2.52,2.72,6.88,6.94,8.7,5.76,2.63-1.7-5.54-7.68-5.54-7.68s7.78,2.93,7.91-.28c.08-2-4.08-2.76-7.3-3.08,3,.61,4.89,1.92,4.72,2.61-.29,1.12-6.76-.08-6.76-.08s5.66,5.27,5,6.39S28.58,54,27.78,53.39Z"/></g><path id="_Path_16" data-name="&lt;Path&gt;" class="cls-13" d="M27.86,47.91s-1.16-.63-2.78-1.71l-.06,0-.33-.22-.06,0c-.12-.07-.23-.16-.35-.24l-.05,0-.38-.27c-4.44-3.16-10.67-8.81-8.11-14.21,4.84-10.19,14.38-2.41,21.12-12a17.72,17.72,0,0,0,2.71-7.92s-1.82,7.2-7.19,10.15C27.59,24,16,22.74,13.74,29.47,9.93,40.76,27.45,47.92,27.86,47.91Z"/></g><g id="_Group_5" data-name="&lt;Group&gt;"><g id="_Group_6" data-name="&lt;Group&gt;"><g id="_Group_7" data-name="&lt;Group&gt;"><path id="_Path_17" data-name="&lt;Path&gt;" class="cls-2" d="M63.39,56.57S52.7,53.63,52.86,54.72,59,58.38,59,58.38s-3.67,1.55-2.78,2.53S63.39,59,63.39,59Z"/><path id="_Path_18" data-name="&lt;Path&gt;" class="cls-14" d="M48.83,70c4.79-1.24,12.67-5,13.24-10.76C63,50.08,49.86,52.64,46.74,41.9a16.87,16.87,0,0,1,0-8c-1.72-1.25-7.26-3.39-7.18-3.82.1-.58,6.93,1.35,6.93,1.35s-6.75-4.85-6.08-5.32,6,2.52,6,2.52-6.06-5.59-4.91-5.39,7.08,4.88,7.08,4.88A92.69,92.69,0,0,0,64.78,38.8c10.16,5.39,13.06,12.92,12.16,20.25-.78,6.37-5.14,15.68-26.42,15.34A11.49,11.49,0,0,0,48.83,70Z"/><path id="_Path_19" data-name="&lt;Path&gt;" class="cls-5" d="M55.92,35.84a2.41,2.41,0,1,0,2-2.73A2.41,2.41,0,0,0,55.92,35.84Z"/><path id="_Path_20" data-name="&lt;Path&gt;" class="cls-6" d="M58.86,36.21a.49.49,0,1,0,1-.14.49.49,0,0,0-.55-.41A.48.48,0,0,0,58.86,36.21Z"/><path id="_Path_21" data-name="&lt;Path&gt;" class="cls-6" d="M57.48,34.76a.94.94,0,1,0,1.85-.28.94.94,0,1,0-1.85.28Z"/><path id="_Path_22" data-name="&lt;Path&gt;" class="cls-2" d="M37.32,78.31C35.51,75.94,43,73.2,43,73.2s-7.62-.85-7-3.19c.53-2.08,10.11.59,10.11.59a39.9,39.9,0,0,0,4.39-1.07,7.21,7.21,0,0,0,2.24,4.86c-1.84,0-3.8,0-5.9-.16C46.76,74.23,39,80.49,37.32,78.31Z"/></g></g><path id="_Path_23" data-name="&lt;Path&gt;" class="cls-15" d="M63,37.83c.58.33,1.18.65,1.79,1a34.09,34.09,0,0,1,3.25,2c-1.29,2.69-4.64,8.7-9.83,11.64-.82-.49-1.71-.95-2.64-1.43C57.56,49.4,61.48,45.43,63,37.83Z"/><path id="_Path_24" data-name="&lt;Path&gt;" class="cls-16" d="M77,55c-3,1.5-8.9,3.85-14.94,3a5.88,5.88,0,0,0-.41-2A22.56,22.56,0,0,0,75,48.16,17.1,17.1,0,0,1,77,55Z"/><path id="_Path_25" data-name="&lt;Path&gt;" class="cls-17" d="M60.35,63.26a8.61,8.61,0,0,0,1.27-2.21c2,1.07,8.31,4.15,13.89,3.07a14.62,14.62,0,0,1-4.91,5.73A18.37,18.37,0,0,1,60.35,63.26Z"/><path id="_Path_26" data-name="&lt;Path&gt;" class="cls-18" d="M57.6,65.89a14.57,14.57,0,0,0,6.46,7A35.7,35.7,0,0,1,58.73,74a13.12,13.12,0,0,1-3.51-6.56A20.41,20.41,0,0,0,57.6,65.89Z"/><path id="_Path_27" data-name="&lt;Path&gt;" class="cls-19" d="M46.74,41.9a15.11,15.11,0,0,1-.36-5.79c3.56.21,10,1.18,11.25,5.25,1.08,3.49-1.24,6.83-3.66,8.77C51,48.47,48,46.31,46.74,41.9Z"/><path id="_Path_28" data-name="&lt;Path&gt;" class="cls-11" d="M61.65,52.81c-1.41-.8-2.43-2.71-1.78-4,.75-1.45,3.56-1.81,5-.4,1.16,1.14,1.37,3.37.19,4.39A3.14,3.14,0,0,1,61.65,52.81Z"/><path id="_Path_29" data-name="&lt;Path&gt;" class="cls-11" d="M64.3,64.26c-1.8-.51-1.21-8.33,1.66-8.08C70.07,56.53,67.45,65.16,64.3,64.26Z"/><path id="_Path_30" data-name="&lt;Path&gt;" class="cls-20" d="M64.78,38.8c10.16,5.39,13.06,12.92,12.16,20.25C76.18,65.27,72,74.29,52,74.39q-.68,0-1.38,0h-.1c-1.2,0-2.45-.07-3.76-.16,0,0-7.78,6.26-9.44,4.08-.56-.72-.24-1.48.46-2.19,1.74,2.64,8.8-2.77,8.8-2.77,2.35.09,24.15.92,28-12.2C78.65,47,58.91,37.35,58.91,37.35L59.83,36C61.35,36.92,63,37.86,64.78,38.8Z"/></g></g></g></g></g></svg>