<svg xmlns="http://www.w3.org/2000/svg" xmlns:xlink="http://www.w3.org/1999/xlink" viewBox="0 0 77.19 69.79"><defs><style>.cls-1{fill:#84b73b;}.cls-2{fill:#538416;}.cls-3{fill:#71a726;}.cls-4{fill:url(#linear-gradient);}.cls-5{fill:url(#linear-gradient-2);}.cls-6{fill:url(#linear-gradient-3);}.cls-7{fill:url(#linear-gradient-4);}.cls-8{fill:url(#linear-gradient-5);}.cls-9{fill:url(#linear-gradient-6);}.cls-10{fill:url(#linear-gradient-7);}.cls-11{fill:url(#linear-gradient-8);}.cls-12{fill:#8ec726;}.cls-13{fill:url(#linear-gradient-9);}.cls-14{fill:url(#linear-gradient-10);}.cls-15{fill:url(#linear-gradient-11);}.cls-16{fill:url(#linear-gradient-12);}</style><linearGradient id="linear-gradient" x1="90.65" y1="3.14" x2="70.78" y2="45.86" gradientTransform="translate(-23.84)" gradientUnits="userSpaceOnUse"><stop offset="0" stop-color="#8ec726"/><stop offset="1" stop-color="#6d9f3b"/></linearGradient><linearGradient id="linear-gradient-2" x1="69.53" y1="2.29" x2="64.28" y2="24.46" xlink:href="#linear-gradient"/><linearGradient id="linear-gradient-3" x1="26.99" y1="-5.27" x2="47.56" y2="21" xlink:href="#linear-gradient"/><linearGradient id="linear-gradient-4" x1="55.5" y1="8.68" x2="55.5" y2="40.23" xlink:href="#linear-gradient"/><linearGradient id="linear-gradient-5" x1="59.69" y1="12.75" x2="72.99" y2="60.59" gradientTransform="translate(-23.84)" gradientUnits="userSpaceOnUse"><stop offset="0" stop-color="#c7e339"/><stop offset="0.3" stop-color="#b9dd3e"/><stop offset="0.88" stop-color="#95ce4b"/><stop offset="1" stop-color="#8ccb4e"/><stop offset="1" stop-color="#8ccb4e"/></linearGradient><linearGradient id="linear-gradient-6" x1="74.68" y1="24.39" x2="73.49" y2="66.11" gradientTransform="translate(-23.84)" gradientUnits="userSpaceOnUse"><stop offset="0" stop-color="#8ec726"/><stop offset="1" stop-color="#5d9734"/></linearGradient><linearGradient id="linear-gradient-7" x1="63.47" y1="36.23" x2="69" y2="63.34" gradientTransform="translate(-23.84)" gradientUnits="userSpaceOnUse"><stop offset="0" stop-color="#70a51e"/><stop offset="1" stop-color="#588d25"/><stop offset="1" stop-color="#588d25"/></linearGradient><linearGradient id="linear-gradient-8" x1="68.71" y1="10.25" x2="82.01" y2="58.08" xlink:href="#linear-gradient-5"/><linearGradient id="linear-gradient-9" x1="61.69" y1="-4.07" x2="92.78" y2="49.64" xlink:href="#linear-gradient-5"/><linearGradient id="linear-gradient-10" x1="29.88" y1="14.34" x2="60.97" y2="68.05" xlink:href="#linear-gradient-5"/><linearGradient id="linear-gradient-11" x1="77.52" y1="7.8" x2="90.82" y2="55.64" xlink:href="#linear-gradient-5"/><linearGradient id="linear-gradient-12" x1="43.63" y1="33.26" x2="59.87" y2="55.31" gradientTransform="translate(-23.84)" gradientUnits="userSpaceOnUse"><stop offset="0" stop-color="#a5d251"/><stop offset="1" stop-color="#8ec726"/></linearGradient></defs><title>salad</title><g id="Layer_2" data-name="Layer 2"><g id="Layer_3" data-name="Layer 3"><g id="_Group_" data-name="&lt;Group&gt;"><g id="_Group_2" data-name="&lt;Group&gt;"><path id="_Path_" data-name="&lt;Path&gt;" class="cls-1" d="M76.59,36.05s.64-8.33-6.67-9.45S61.8,37.26,61.8,37.26Z"/><path id="_Path_2" data-name="&lt;Path&gt;" class="cls-1" d="M0,28.74S-.35,21.31,7.33,20s10.21,9.47,10.21,9.47S7.28,24.69,0,28.74Z"/><g id="_Group_3" data-name="&lt;Group&gt;"><path id="_Path_3" data-name="&lt;Path&gt;" class="cls-2" d="M75.56,19.93C73,18.4,64,20.7,64,20.7s2.1-12.21-3.22-13.22c-4.67-.9-10.93,7.94-10.93,7.94-.4-8.34-3.46-12.92-7.06-13.31-7.45-.79-16.76,18.13-21.68,15.06S4.45,14.32,4.45,17.06c0,1.87,7.16,8.41,7.16,8.41,5.69,1.69,15.07,20,15.07,20a62.32,62.32,0,0,0,3.91,10.83A16.86,16.86,0,0,1,33.16,53l3.39-2.63a12.47,12.47,0,0,1,6.25-2,12.69,12.69,0,0,1,6.69.3,12.7,12.7,0,0,1,5.71,3,13.66,13.66,0,0,1,1.59,1.22C59,46.11,62.1,38.16,65.57,34.69,72.18,28.08,78.18,21.47,75.56,19.93Z"/><path id="_Path_4" data-name="&lt;Path&gt;" class="cls-3" d="M53.63,43.76c4.85,2.22-.05,20.45-.05,20.45s-1.08,6.3-11.53,4S26.68,45.45,26.68,45.45,51.34,42.71,53.63,43.76Z"/><path id="_Path_5" data-name="&lt;Path&gt;" class="cls-4" d="M58.75,43.53c4.83-10.79,11.69-23.72,18.44-32.6,0,0-9.52-8-14.64-2.06-1.94,2.23,1.91,8-1.78,7.23-1.53-.32-10.58-5.32-15.06,2.4C40.3,27.81,58.75,43.53,58.75,43.53Z"/><path id="_Path_6" data-name="&lt;Path&gt;" class="cls-5" d="M28.91,25.56S26.54.57,31.34,0s7.15,10.12,9.89,10.12,6.54-3.54,10.08-1.9c3.85,1.78-.68,11.66.83,11.94s8.5-3.3,2.88,8.5c-4,8.37-22.91,22.23-22.91,22.23Z"/><path id="_Path_7" data-name="&lt;Path&gt;" class="cls-6" d="M21.05,35.55S17,17.68,5.17,10.36c-1.52-.94,9.39-4.18,13.11.89,0,0,3.51-3.21,7.78-2.85,8.1.69,4.5,18.64,3.82,22.34S21.05,35.55,21.05,35.55Z"/><path id="_Path_8" data-name="&lt;Path&gt;" class="cls-7" d="M15.7,3.9S28.51,19.35,30.06,46.37C31.42,70,44.69,46.57,46.23,40S49,21.42,44.3,18.75s-11.37,1.56-12.75-.59S36,7.88,32.19,4.5C28.86,1.57,20.93,2.05,15.7,3.9Z"/><path id="_Path_9" data-name="&lt;Path&gt;" class="cls-8" d="M44.3,18.75c-4.72-2.65-11.37,1.56-12.75-.59S36,7.88,32.19,4.5a7.73,7.73,0,0,0-3-1.53h0s3.25,1.56,3.43,4.47c.22,3.49-3.65,8.72-1.64,11.33S38.59,17.23,44.3,18.75Z"/><path id="_Path_10" data-name="&lt;Path&gt;" class="cls-9" d="M36,49.79c-2.24-3.28-3-9.23-.53-12.46s8.1,1.89,8.94,1.19S41.14,22.38,46.2,20.89c3.92-1.15,7.74,5.25,8.76,5.19,2.77-.15,3.85-8.91,12.46-6.61-8.92,13.68-13,24-13.77,38.28a9.37,9.37,0,0,1-1.59,8.54,6.82,6.82,0,0,1-4.87,2.58s3.16-4.65-.39-8.06C41.52,55.75,38.15,53,36,49.79Z"/><path id="_Path_11" data-name="&lt;Path&gt;" class="cls-10" d="M40.31,53.1s-2.6,6.1-.74,9,9.26,2.44,10-.14S46,55.89,46,55.89l8.38,3.73s.24,9.26-10.64,8.91C32.34,68.16,32.86,57.36,40.31,53.1Z"/><path id="_Path_12" data-name="&lt;Path&gt;" class="cls-11" d="M54.91,27.07c2.19,0,4.19-4.68,6.24-7C58,21.9,56.84,26,55,26.08c-1,.06-4.84-6.34-8.76-5.19-5.06,1.49-1,16.94-1.84,17.63-.57.47-3.31-1.69-5.79-2.17,1.32,1,5.57,4.29,6.8,3.47,1.46-1-3.41-15.48.49-17.91C49.2,19.82,52.19,27.07,54.91,27.07Z"/><path id="_Path_13" data-name="&lt;Path&gt;" class="cls-12" d="M70.08,30.63c-4.55,0-5.74,2.71-7.69,3.36s-1.74-4-7.16-3S49,39.3,51.87,44.18c0,0-3.14-1.19-4.33.32s2.06,4.77,1.52,6.29-5.64.54-4.66,3.47,8.05,5,7.8,8c-.62,7.62-12.7,7.21-15,.84-1.72-4.77,8.45-14.85,4.55-18.75s-8.34-.86-9.54-2.82,2.6-12.24-.65-14.52-4,2.28-5.63,1.95S23.59,18.76,18.6,18.5c-3.7-.2-3.59,4.19-7.17,4.3C8.79,22.88,1.67,22,0,28.74c0,0,10.73-1.59,16.5,5.76,5.12,6.54,6.66,26,11.81,31.12,3.23,3.23,8.16,4.17,13.87,4.17A21,21,0,0,0,49,69.08c4.6-1.56,6.8-5.06,7.73-9.53,1.06-5.13,2.32-9.91,5.15-14.4,4.82-7.66,14.74-9.1,14.74-9.1S75.36,30.63,70.08,30.63Z"/></g><path id="_Path_14" data-name="&lt;Path&gt;" class="cls-13" d="M52.14,20.18c-1.51-.28,3-10.16-.83-11.94-3.54-1.64-7.33,1.9-10.08,1.9-1.92,0-3.66-5.25-6.18-8.2H35s3.54,8.44,5.7,9,7-3.06,9.68-2.27c3.72,1.09-.79,11.36,1.1,12.19,1,.45,3-.95,4.87-.67C55.11,19.46,52.91,20.32,52.14,20.18Z"/><path id="_Path_15" data-name="&lt;Path&gt;" class="cls-14" d="M18.27,19.32c2.67-.25,5.09,4.48,5.77,5.8-1-2.93-2.48-6.47-5.44-6.62-3.7-.2-3.59,4.19-7.17,4.3-2.24.07-7.71-.57-10.33,3.38-.08.15-.16.31-.23.47a11.16,11.16,0,0,1,6-3c3.16-.46,4.4.52,5.91.17C14.94,23.28,16.28,19.51,18.27,19.32Z"/><path id="_Path_16" data-name="&lt;Path&gt;" class="cls-15" d="M72.5,31.08a6.37,6.37,0,0,0-2.42-.45c-4.55,0-5.74,2.71-7.69,3.36s-1.74-4-7.16-3S49,39.3,51.87,44.18c0,0-3.25-9.77,2.13-11.87,5.92-2.31,5.57,2.59,8,2.59C65,34.9,65.4,30.3,72.5,31.08Z"/></g><path id="_Path_17" data-name="&lt;Path&gt;" class="cls-16" d="M3.05,27.33a8.88,8.88,0,0,1,8.44-1c4.71,1.94,4.94-3.12,7.43-3.12s3.92,9.76,6,9.9,3.17-3.67,4.69-3.26-2.9,13.78-.4,15.16,7.62-.91,8.45,2.28-8.84,17.14-12.37,5.21S21.12,27.05,3.05,27.33Z"/></g></g></g></svg>